<svg version="1.1" id="Layer_1" xmlns="http://www.w3.org/2000/svg" xmlns:xlink="http://www.w3.org/1999/xlink" x="0px" y="0px" viewBox="0 0 500 500" style="width: 151px;" xml:space="preserve" data-imageid="conference-12" imageName="Conference" class="illustrations_image">
<style type="text/css">
	.st0_conference-12{fill:#FF9F9F;}
	.st1_conference-12{fill:url(#SVGID_1_);}
	.st2_conference-12{fill:url(#SVGID_00000130643722548471426450000014380104565345171126_);}
	.st3_conference-12{fill:url(#SVGID_00000109737609472761589740000013022544328071936953_);}
	.st4_conference-12{fill:url(#SVGID_00000037672817876603596080000015690743256516398227_);}
	.st5_conference-12{fill:url(#SVGID_00000014602076215227842180000009934120737920319418_);}
	.st6_conference-12{fill:url(#SVGID_00000067931421729224523880000016733519096625227422_);}
	.st7_conference-12{fill:url(#SVGID_00000025400475363808519460000003785226854461075116_);}
	.st8_conference-12{fill:url(#SVGID_00000043458607529518779200000003135923612123609228_);}
	.st9_conference-12{fill:url(#SVGID_00000005979383806229826320000012903583075645858447_);}
	.st10_conference-12{fill:#F7BD89;}
	.st11_conference-12{fill:#007058;}
	.st12_conference-12{fill:#4C4C4C;}
	.st13_conference-12{fill:#EFEFEF;}
	.st14_conference-12{fill:#2F497C;}
	.st15_conference-12{fill:#68E1FD;}
	.st16_conference-12{fill:#DD6F31;}
	.st17_conference-12{fill:#8383EA;}
	.st18_conference-12{fill:#D9616F;}
	.st19_conference-12{opacity:0.5;fill:#4C4C4C;enable-background:new    ;}
	.st20_conference-12{fill:url(#SVGID_00000023994271410952102530000006969560874810668989_);}
</style>
<g id="background_conference-12">
	<path class="st0_conference-12" d="M242.8,399.4L20,267.7c-7.1-4-13.2-10.5-6.3-14.8l223.6-128.8c3.4-2.1,8.4-3.4,11.9-1.5L483,258.3&#10;&#9;&#9;c7.1,4.1,8.4,15.6,1.3,19.7L272.1,399.2C263.1,404.4,251.9,404.5,242.8,399.4z"/>
	
		<linearGradient id="SVGID_1_-conference-12" gradientUnits="userSpaceOnUse" x1="428.3986" y1="219.1315" x2="443.5786" y2="233.2015" gradientTransform="matrix(1 0 0 -1 0 502)">
		<stop offset="0" style="stop-color:#FF9F9F"/>
		<stop offset="1" style="stop-color:#D9616F"/>
	</linearGradient>
	<polyline class="st1_conference-12" points="454.5,274.1 429.8,293.5 411.6,283 441.8,261.8 &#9;"/>
</g>
<g id="audiences_conference-12">
	
		<linearGradient id="SVGID_00000140701606294034993450000012163042019511291303_-conference-12" gradientUnits="userSpaceOnUse" x1="249.1134" y1="120.5263" x2="264.9434" y2="135.1964" gradientTransform="matrix(1 0 0 -1 0 502)">
		<stop offset="0" style="stop-color:#FF9F9F"/>
		<stop offset="1" style="stop-color:#D9616F"/>
	</linearGradient>
	<polyline style="fill:url(#SVGID_00000140701606294034993450000012163042019511291303_);" points="277.7,373.9 248.4,390.5 &#10;&#9;&#9;230.1,380.1 265,361.5 &#9;"/>
	
		<linearGradient id="SVGID_00000013183938442051817780000000637059726646134144_-conference-12" gradientUnits="userSpaceOnUse" x1="196.7195" y1="153.3605" x2="212.5595" y2="168.0305" gradientTransform="matrix(1 0 0 -1 0 502)">
		<stop offset="0" style="stop-color:#FF9F9F"/>
		<stop offset="1" style="stop-color:#D9616F"/>
	</linearGradient>
	<polyline style="fill:url(#SVGID_00000013183938442051817780000000637059726646134144_);" points="225.4,341.1 196,357.7 &#10;&#9;&#9;177.7,347.3 212.7,328.7 &#9;"/>
	
		<linearGradient id="SVGID_00000179626465083676747430000002430903721975520934_-conference-12" gradientUnits="userSpaceOnUse" x1="246.361" y1="182.8489" x2="262.201" y2="197.5289" gradientTransform="matrix(1 0 0 -1 0 502)">
		<stop offset="0" style="stop-color:#FF9F9F"/>
		<stop offset="1" style="stop-color:#D9616F"/>
	</linearGradient>
	<polyline style="fill:url(#SVGID_00000179626465083676747430000002430903721975520934_);" points="275,311.6 245.6,328.2 &#10;&#9;&#9;227.4,317.8 262.3,299.2 &#9;"/>
	
		<linearGradient id="SVGID_00000065781264017643236680000003808583946454836116_-conference-12" gradientUnits="userSpaceOnUse" x1="139.6595" y1="181.3406" x2="155.4995" y2="196.0106" gradientTransform="matrix(1 0 0 -1 0 502)">
		<stop offset="0" style="stop-color:#FF9F9F"/>
		<stop offset="1" style="stop-color:#D9616F"/>
	</linearGradient>
	<polyline style="fill:url(#SVGID_00000065781264017643236680000003808583946454836116_);" points="168.3,313.1 138.9,329.7 &#10;&#9;&#9;120.7,319.3 155.6,300.7 &#9;"/>
	
		<linearGradient id="SVGID_00000038377427402399382300000002050752790103235510_-conference-12" gradientUnits="userSpaceOnUse" x1="75.641" y1="217.7389" x2="91.481" y2="232.4189" gradientTransform="matrix(1 0 0 -1 0 502)">
		<stop offset="0" style="stop-color:#FF9F9F"/>
		<stop offset="1" style="stop-color:#D9616F"/>
	</linearGradient>
	<polyline style="fill:url(#SVGID_00000038377427402399382300000002050752790103235510_);" points="104.3,276.7 74.9,293.3 &#10;&#9;&#9;56.7,282.9 91.6,264.3 &#9;"/>
	
		<linearGradient id="SVGID_00000067238406685356912270000001358600152344145050_-conference-12" gradientUnits="userSpaceOnUse" x1="127.1395" y1="246.4505" x2="142.9795" y2="261.1205" gradientTransform="matrix(1 0 0 -1 0 502)">
		<stop offset="0" style="stop-color:#FF9F9F"/>
		<stop offset="1" style="stop-color:#D9616F"/>
	</linearGradient>
	<polyline style="fill:url(#SVGID_00000067238406685356912270000001358600152344145050_);" points="155.8,248 126.4,264.6 &#10;&#9;&#9;108.2,254.2 143.1,235.6 &#9;"/>
	
		<linearGradient id="SVGID_00000053540595401725628060000002956627457629514377_-conference-12" gradientUnits="userSpaceOnUse" x1="297.0295" y1="147.3105" x2="312.8695" y2="161.9806" gradientTransform="matrix(1 0 0 -1 0 502)">
		<stop offset="0" style="stop-color:#FF9F9F"/>
		<stop offset="1" style="stop-color:#D9616F"/>
	</linearGradient>
	<polyline style="fill:url(#SVGID_00000053540595401725628060000002956627457629514377_);" points="325.7,347.1 296.3,363.7 &#10;&#9;&#9;278,353.3 313,334.8 &#9;"/>
	
		<linearGradient id="SVGID_00000155849079190070051390000007234908924490518205_-conference-12" gradientUnits="userSpaceOnUse" x1="189.2995" y1="210.8306" x2="205.1395" y2="225.5006" gradientTransform="matrix(1 0 0 -1 0 502)">
		<stop offset="0" style="stop-color:#FF9F9F"/>
		<stop offset="1" style="stop-color:#D9616F"/>
	</linearGradient>
	<polyline style="fill:url(#SVGID_00000155849079190070051390000007234908924490518205_);" points="217.9,283.6 188.6,300.2 &#10;&#9;&#9;170.3,289.8 205.2,271.2 &#9;"/>
	<path class="st10_conference-12" d="M121.7,181l-5.8-2.4l-0.6,5.6l6.2,1.1C121.6,183.9,121.7,182.5,121.7,181z"/>
	<path class="st11_conference-12" d="M208.9,272.5c-0.5-0.1-2-0.1-2.6-0.1c-1.8,1.2-3.9,1.9-6,2c-2.6,0.4-5.3-0.2-7.4-1.7c-0.2,2.2-0.4,4-0.4,4&#10;&#9;&#9;c-0.2,3.1,3.8,2.5,5.3,2.4c3-0.2,5.9-0.6,8.8-1.3c1.1-0.3,4.8-0.9,5-2.7S211.1,272.7,208.9,272.5z"/>
	<path class="st10_conference-12" d="M202,261.5c0,0-2.3,10.8-1.2,10.8s8.2,0.2,8.2,0.2c-1.3,2.7-3.9,4.6-6.9,4.9c-5.3,0.8-9.1-4.6-9.1-4.6&#10;&#9;&#9;l2.1-13.5"/>
	<path class="st10_conference-12" d="M192,256.5l-1.6,8.6c0,0,2.5,2.5,10.8,2.2s0-15.2,0-15.2"/>
	<path class="st11_conference-12" d="M187.1,235.7c0,0,9.3-7.5,15.5-8.3s9.4,5.8,9,10.3s-15.2,6.9-15.2,6.9"/>
	<path class="st11_conference-12" d="M217.6,278.9c-0.5-0.1-2-0.1-2.6-0.1c-1.8,1.2-3.9,1.9-6,2c-2.6,0.4-5.3-0.2-7.4-1.7c-0.2,2.2-0.4,4-0.4,4&#10;&#9;&#9;c-0.2,3.1,3.8,2.5,5.3,2.4c3-0.2,5.9-0.6,8.8-1.3c1.1-0.3,4.8-0.9,5-2.7S219.8,279.2,217.6,278.9z"/>
	<path class="st10_conference-12" d="M210.6,267.9c0,0-2.3,10.8-1.2,10.8s8.2,0.2,8.2,0.2c-1.3,2.7-4,4.6-7,4.9c-5.3,0.8-9.1-4.6-9.1-4.6l2.1-13.5&#10;&#9;&#9;"/>
	<path class="st11_conference-12" d="M192.7,238.5c1.2-1.1,17-8.5,22.5-5.1s5.2,5.9,4.5,9.9s-6.1,26.2-6.1,26.2c-4,1.6-8.5,1.8-12.6,0.6l1.6-16.4&#10;&#9;&#9;l-21-11.5"/>
	<polygon class="st12_conference-12" points="192.8,236.8 197.8,240.5 219.1,229.6 204.8,219.5 184.9,230.8 &#9;"/>
	<path class="st12_conference-12" d="M140.2,232.8l-1.2,5.8c1.6-0.3,3.3-0.5,5-0.5c1.3,0.2,2.9,2.5,1.3,4s-4.4,1.4-7.1,2s-3.2,0.8-4.9,0.3&#10;&#9;&#9;s-2-2.9-2-2.9l1.4-10"/>
	<path class="st13_conference-12" d="M131.1,227.2l-1.6,8.6c0,0,2.5,2.5,10.8,2.2s6.3-17.3,6.3-17.3"/>
	<ellipse class="st14_conference-12" cx="120.3" cy="247.3" rx="11.9" ry="4.4"/>
	<polyline class="st14_conference-12" points="118.3,227.6 118.8,245.3 122.3,245.3 122.3,227.6 &#9;"/>
	<path class="st12_conference-12" d="M149.9,237.6l-1.2,5.8c1.6-0.3,3.3-0.5,5-0.5c1.3,0.2,2.9,2.5,1.3,4s-4.4,1.4-7.1,2s-3.2,0.8-4.9,0.3&#10;&#9;&#9;s-2-2.9-2-2.9l1.4-10"/>
	<path class="st13_conference-12" d="M126.2,206.4c0,0,9.3-7.5,15.5-8.3s9.4,5.8,8.9,10.3s-15.2,6.9-15.2,6.9"/>
	<path class="st13_conference-12" d="M123.8,209.9c1.2-1.1,21.8-7.3,27.3-3.9s5.9,5.7,5.2,9.8s-4.2,24.1-4.2,24.1s-2.7,2.4-10,0.5l3.8-22.5&#10;&#9;&#9;l-23.7,5.7"/>
	<path class="st14_conference-12" d="M119.7,182.8c1.2,0.2,2.5,0.5,3.7,0.9c2.1,0.6,4.9,1.5,5.9,3.7c1.5,3.3,3.8,20.4,3.8,20.4s-4.3,6.4-11.8,4.1&#10;&#9;&#9;c-2.2-0.7-13.7-21.7-14-23.9c-0.4-2.7,2.5-3.9,4.6-4.6c1.3-0.4,2.6-0.6,4-0.7C117.1,182.6,118.4,182.6,119.7,182.8z"/>
	<path class="st15_conference-12 targetColor" d="M105.5,219.5c-0.4-0.9-0.7-1.8-0.9-2.7c-1.8-6.9-2.9-32.9,8.8-31.9c12.8,1.2,8.5,33.3,21.5,32.3&#10;&#9;&#9;s18.3,2.4,13,7.4C137.2,234.8,112,235,105.5,219.5z" style="fill: rgb(68, 40, 107);"/>
	<path class="st10_conference-12" d="M125.6,172c0.1,0.5-0.3,8.2-2.4,9.8s-7.4-1.4-7.5-3.3s0.1-7.2,2.1-8.1S125,168.5,125.6,172z"/>
	<path class="st12_conference-12" d="M126.7,168.3c-0.7-1.2-2.2-1.8-3.5-1.4L123,167c-0.4-0.9-1-1.6-1.9-2c-1-0.4-2.1-0.2-2.9,0.6&#10;&#9;&#9;c-0.8-0.7-1.9-1-3-0.7c-1,0.3-1.7,1.2-1.8,2.3c-1,0-1.9,0.4-2.4,1.2c-0.4,0.7-0.5,1.5-0.3,2.3c-0.8,0.6-1.3,1.4-1.4,2.4&#10;&#9;&#9;c-0.2,1,0.2,2,1,2.7c-0.2,0.8,0,1.7,0.5,2.4c0.4,0.5,0.9,0.8,1.5,1c0.2,0.5,0.5,0.9,0.9,1.1c0.4,0.3,0.9,0.4,1.4,0.3&#10;&#9;&#9;c0.4,0.6,1,1,1.7,1.2c1.7,0.3,4.1,0.4,4.2,0.1s-1.1-4.5,0.1-4.8s3.8-0.9,3.7-3.8c1,0,1.9-0.5,2.4-1.3&#10;&#9;&#9;C127.5,170.9,127.5,169.4,126.7,168.3z"/>
	<path class="st10_conference-12" d="M156.3,198.2c0-0.3-0.3-0.5-0.5-0.5c0,0-0.1,0-0.1,0l-0.8,0.3c0.2-0.1,0.3-0.3,0.3-0.5c0-0.2,0-0.5-0.2-0.7&#10;&#9;&#9;c-0.1-0.2-0.4-0.3-0.6-0.2l-3.3,1.1c0.6-0.4,1.7-1.1,0.8-1.8c-0.7-0.6-1.9,0.4-2.6,0.7c-1.3,0.6-2.5,1.3-3.6,2.1&#10;&#9;&#9;c-0.1,0.1-0.2,0.2-0.2,0.3H145h-0.7c0.1,0.8,0.2,1.6,0.2,2.3c0,0.1,0,0.3,0.1,0.4c0.1,0.3,0.3,0.8,0,0.2c0.3,0.5,0.4,1,0.3,1.6&#10;&#9;&#9;c1.6,0.3,3.2,0.1,4.6-0.4c1.1-0.3,3.3-0.1,3.3-1.6c0.8-0.2,1.4-0.8,1.9-1.4c0-0.1,0.1-0.1,0.1-0.2c0.7-0.3,1.4-0.7,1.5-1.4&#10;&#9;&#9;C156.4,198.4,156.4,198.3,156.3,198.2z"/>
	<path class="st12_conference-12" d="M154.3,197c0.1,0,0.2-0.1,0.1-0.2c0-0.1-0.1-0.2-0.2-0.1c-1.4,0.5-2.8,1-4.2,1.6c-0.2,0.1-0.1,0.4,0.1,0.4&#10;&#9;&#9;C151.5,198,152.9,197.5,154.3,197z"/>
	<path class="st12_conference-12" d="M155.8,198.1c0.2-0.1,0.1-0.4-0.1-0.4l-5.7,1.8c-0.1,0-0.1,0.2-0.1,0.3c0,0.1,0.1,0.1,0.2,0.1L155.8,198.1z"/>
	<path class="st12_conference-12" d="M154.6,199.8l-4.4,1.2c-0.1,0-0.2,0.1-0.1,0.2s0.1,0.2,0.2,0.1l0,0l4.4-1.2&#10;&#9;&#9;C154.9,200,154.8,199.7,154.6,199.8z"/>
	<path class="st12_conference-12" d="M152.8,201.5c-1.1,0.3-2.2,0.5-3.3,0.7c-0.2,0-0.1,0.4,0.1,0.4c1.1-0.2,2.2-0.4,3.3-0.7&#10;&#9;&#9;C153.2,201.8,153.1,201.4,152.8,201.5z"/>
	<path class="st16_conference-12" d="M171.6,224.6c0,0-0.3-12.5,5.4-12.7s13.2,3.9,13.6,10.5s1.5,19,1.5,21.4s-4.2,10.9-4.2,10.9"/>
	<path class="st12_conference-12" d="M264,291.6c0,0.4-0.3,5.5,0.2,6s2,3.4,3.9,3.6s3.5-0.3,3.9,1.7s-10.4,2.6-10.4,2.6s-1.1-4.5-1.6-4.4&#10;&#9;&#9;s-0.5,5-0.5,5l-2,0.4l-2-1.3l0.8-8.6l1.3-7.3"/>
	<path class="st12_conference-12" d="M272,298.9c-0.3,3-0.1,7.1,2.8,9c1.6,1,4.9,0.1,5.3,2.3c0.4,2-10.4,2.7-10.4,2.7s-1.1-4.5-1.6-4.3&#10;&#9;&#9;s-0.4,5-0.4,5l-2,0.4l-2-1.3l0.8-8.6l1.2-7.3"/>
	<path class="st10_conference-12" d="M267.3,243.6l1.4-1.9c0.4-0.5,0.2-1.2-0.2-1.5c-0.2-0.2-0.5-0.2-0.8-0.2c0.3-0.5,0.5-1.1,0.7-1.6&#10;&#9;&#9;c0.1-0.6-0.3-1.1-0.9-1.2c-0.3,0-0.7,0.1-0.9,0.3l-2.4,3.1l1.2-2.1c0.7-1.2-1.2-2.1-1.9-0.9l-2,3.5c0-0.3,0-0.7,0-1&#10;&#9;&#9;c0-0.9-0.2-2.1-1.4-2.1c-0.6-0.1-1.1,0.3-1.2,0.9c-0.2,0.8-0.2,1.6,0,2.4c0.2,0.8,0.7,2,0.2,2.8l-2.4,3.7c-0.4,0.4-0.4,1,0.1,1.4&#10;&#9;&#9;c0.2,0.2,0.4,0.3,0.6,0.3c0.1,0.6,0.6,1,1.2,1c0.1,0,0.2,0,0.2-0.1c0.2,0.1,0.5,0.2,0.7,0.1c0.3,0.4,0.8,0.5,1.2,0.3&#10;&#9;&#9;c0.2,0.5,0.7,0.8,1.2,0.7c0.2-0.1,0.4-0.2,0.5-0.4c1.7-2,3.9-3.6,5.5-5.7c0.3-0.5,0.2-1.2-0.3-1.6&#10;&#9;&#9;C267.7,243.7,267.5,243.6,267.3,243.6z"/>
	<path class="st14_conference-12" d="M244.5,257.6c0.8,2.4,2.9,4,5.4,4.2c4.3,0.2,12.4-8.8,12.4-8.8s0.2-8-3.3-9.4c0,0-5.9,5.1-6.7,5.1&#10;&#9;&#9;s-5.6-4.4-5.6-4.4"/>
	<path class="st10_conference-12" d="M269.2,244.4l1.1-2.1c0.3-0.6,0-1.2-0.5-1.5c-0.2-0.1-0.5-0.1-0.8-0.1c0.2-0.6,0.3-1.1,0.4-1.7&#10;&#9;&#9;c0-0.6-0.5-1-1.1-1c-0.4,0-0.7,0.2-0.9,0.5c-0.6,1.2-1.2,2.3-1.8,3.5l0.8-2.2c0.5-1.3-1.6-1.8-2-0.6s-0.9,2.5-1.4,3.8&#10;&#9;&#9;c-0.1-0.3-0.1-0.7-0.2-1c-0.2-0.9-0.5-2-1.7-1.9c-0.6,0-1,0.4-1,1c0,0.8,0.1,1.6,0.5,2.3c0.3,0.8,1.1,1.8,0.7,2.7l-1.7,4.1&#10;&#9;&#9;c-0.3,0.5-0.2,1.1,0.3,1.4c0.2,0.1,0.5,0.2,0.7,0.2c0.2,0.6,0.8,0.9,1.4,0.7c0.1,0,0.1-0.1,0.2-0.1c0.2,0.1,0.5,0.1,0.7,0&#10;&#9;&#9;c0.3,0.3,0.9,0.3,1.2,0.1c0.2,0.5,0.8,0.7,1.3,0.4c0.2-0.1,0.4-0.3,0.4-0.4c1.3-2.3,3.3-4.2,4.4-6.6c0.2-0.6-0.1-1.2-0.7-1.4&#10;&#9;&#9;C269.5,244.4,269.4,244.4,269.2,244.4z"/>
	<path class="st13_conference-12" d="M254.5,287.8l-1.6,8.6c0,0,2.5,2.5,10.8,2.2s0-15.2,0-15.2"/>
	<ellipse class="st14_conference-12" cx="243.7" cy="307.8" rx="11.9" ry="4.4"/>
	<polyline class="st14_conference-12" points="241.7,288.1 242.1,305.8 245.7,305.8 245.7,288.1 &#9;"/>
	<path class="st13_conference-12" d="M249.6,267c0,0,9.3-7.5,15.5-8.3s9.4,5.8,9,10.3s-15.2,6.9-15.2,6.9"/>
	<path class="st13_conference-12" d="M254.6,269.4c1.2-1.1,17-8.5,22.5-5.1s5.2,5.9,4.5,9.9s-6.1,26.2-6.1,26.2c-4,1.6-8.5,1.8-12.6,0.6l1.6-16.4&#10;&#9;&#9;l-21-11.5"/>
	<path class="st14_conference-12" d="M243.1,243.1c0.8,0.6,8,1.5,9.5,4.8s3.8,20.4,3.8,20.4s-4.3,6.4-11.8,4.1c-2.2-0.7-13.7-21.7-14.1-23.9&#10;&#9;&#9;C229.8,242.9,243.1,243.1,243.1,243.1z"/>
	<path class="st15_conference-12 targetColor" d="M228.9,280.1c-0.4-0.9-0.7-1.8-0.9-2.7c-1.8-6.9-2.9-32.9,8.8-31.9c12.8,1.2,8.5,33.2,21.5,32.3&#10;&#9;&#9;c13-1,18.3,2.4,13,7.4C260.6,295.3,235.4,295.5,228.9,280.1z" style="fill: rgb(68, 40, 107);"/>
	<path class="st10_conference-12" d="M247.7,234.1c0.1,0.5,1,8-1.2,9.6s-7.1-2.3-7.3-4.2s-1.8-6.1,0.3-7.1S247.1,230.4,247.7,234.1z"/>
	<path class="st14_conference-12" d="M249.6,262.4c1.2,2.2,3.6,3.4,6.1,3c4.2-0.6,10.5-11,10.5-11s-1.3-7.9-5.1-8.6c0,0-4.8,6.1-5.6,6.3&#10;&#9;&#9;s-2.9-4.3-2.9-4.3"/>
	<path class="st12_conference-12" d="M247.2,246.5c-0.9-0.6-2.3-1.1-2-2.5c0.2-1.1,1.4-1.9,1.4-3.1c0-1.1-0.4-2.3-1.2-3.1&#10;&#9;&#9;c-0.5-0.5-1.1-0.8-0.8-1.6c0.3-0.5,0.7-1,1.2-1.2l2.4,0.1c0.9-2.6-0.2-5.5-2.7-6.7c-2.8-1.7-7.5-1.2-9.8,1.1&#10;&#9;&#9;c-0.6,0.7-1.2,1.4-1.6,2.2c-0.5,1-1.2,2-2.1,2.7c-1,0.6-1.6,1.6-1.8,2.7c-0.1,1.1,0.2,2.1,0.8,3c0.6,1.2-0.4,2-1.1,2.8&#10;&#9;&#9;c-0.9,0.8-1.4,1.8-1.6,3c-0.1,2.5,2.3,3.6,4.4,4s3.9,0.6,5.9,1c2.5,0.4,4.9,1.3,7.5,0.6c0.7-0.2,1.3-0.5,1.8-0.9c1-1.1,1-2.8,0-3.8&#10;&#9;&#9;c-0.1-0.1-0.1-0.1-0.2-0.2L247.2,246.5z"/>
	<path class="st10_conference-12" d="M208.6,224.8l0.1-0.1c0.4-0.3,0.5-0.8,0.2-1.1c-0.2-0.3-0.7-0.5-1-0.3l-0.2,0.1c0-0.5-0.4-0.8-0.8-0.8&#10;&#9;&#9;c-0.1,0-0.3,0-0.4,0.1c-0.9,0.5-1.9,0.9-2.8,1.4l0.4-0.4c0.5-0.7-0.1-1.8-1-1.3c-1.1,0.7-2.2,1.4-3.3,2.2c-0.4,0.3-0.5,0.8-0.2,1.2&#10;&#9;&#9;c0,0,0,0,0,0c-0.1,0-0.1,0.1-0.2,0.1c-0.3,0.3-0.4,0.7-0.2,1.1c-0.1,0.3-0.1,0.5,0.1,0.8c-0.5,0.4-0.2,1.1,0.3,1.3l0.1,0.1l-1,0.3&#10;&#9;&#9;c-1,0.3-0.6,1.9,0.4,1.6l5-1.7c1.3-0.3,2.5-1,3.5-1.9c0.2-0.2,0.3-0.6,0.1-0.9c0.4-0.2,0.7-0.4,1-0.7c0.3-0.3,0.4-0.7,0.1-1&#10;&#9;&#9;C208.7,224.9,208.6,224.8,208.6,224.8z"/>
	<path class="st16_conference-12" d="M188.3,227.9c0,0,8.9-3.6,11.6-4.4c0,0,2.8,1.9,2,7c0,0-8,8.2-13,10.7"/>
	<ellipse class="st14_conference-12" cx="182.6" cy="280" rx="11.9" ry="4.4"/>
	<polyline class="st14_conference-12" points="180.7,260.4 181.1,278.1 184.6,278.1 184.6,260.4 &#9;"/>
	<path class="st15_conference-12 targetColor" d="M166.4,250.4c-0.4-0.9-0.7-1.8-0.9-2.7c-1.8-6.9-2.9-32.9,8.8-31.9c12.8,1.2,8.5,33.3,21.5,32.3&#10;&#9;&#9;s18.3,2.4,13,7.4C198.2,265.6,172.9,265.8,166.4,250.4z" style="fill: rgb(68, 40, 107);"/>
	<path class="st10_conference-12" d="M183.2,200.7c0,0,4.3,9,1.5,11.6c-2,1.9-5.9,1.8-8-1.7S179.4,199.1,183.2,200.7z"/>
	<path class="st11_conference-12" d="M179.1,209.3c2.3-2.1,3.8-4.9,4.2-7.9c0.5-4.8-10.2-3.1-11.9,1.6s0.8,11.4,8,10.5L179.1,209.3z"/>
	<path class="st11_conference-12" d="M174.1,209.9c-0.7,0.6-19.4,19.6-9.7,26c8,5.3,11.1-22.5,11.1-24.7"/>
	<path class="st14_conference-12" d="M129.2,187.4c0,0,5.8,12.4,7.6,12.8s8.7-3.1,9.9-2.1s3.2,4.8,1.9,6.6s-13.8,5.8-17.4,4.3s-9.2-14.1-8.9-17&#10;&#9;&#9;S126.4,184.4,129.2,187.4z"/>
	<path class="st12_conference-12" d="M158.1,302.3c-0.5-0.1-2-0.1-2.6-0.1c-1.8,1.2-3.9,1.9-6,2c-2.6,0.4-5.3-0.2-7.4-1.7c-0.2,2.2-0.4,4-0.4,4&#10;&#9;&#9;c-0.2,3.1,3.8,2.5,5.3,2.4c3-0.2,5.9-0.6,8.8-1.3c1.1-0.3,4.8-0.9,5-2.7S160.3,302.6,158.1,302.3z"/>
	<path class="st10_conference-12" d="M151.2,291.3c0,0-2.3,10.8-1.2,10.8s8.2,0.2,8.2,0.2c-1.3,2.7-4,4.6-7,4.9c-5.3,0.8-9.1-4.6-9.1-4.6l2.1-13.5&#10;&#9;&#9;"/>
	<path class="st14_conference-12" d="M141.2,286.3l-1.6,8.6c0,0,2.5,2.5,10.8,2.2s0-15.2,0-15.2"/>
	<path class="st14_conference-12" d="M136.3,265.5c0,0,9.3-7.5,15.5-8.3s9.4,5.8,9,10.3s-15.2,6.9-15.2,6.9"/>
	<path class="st12_conference-12" d="M166.8,308.8c-0.5-0.1-2-0.1-2.6-0.1c-1.8,1.2-3.9,1.9-6,2c-2.6,0.4-5.3-0.2-7.4-1.7c-0.3,2.2-0.4,4-0.4,4&#10;&#9;&#9;c-0.3,3.1,3.8,2.5,5.3,2.4c3-0.2,5.9-0.6,8.8-1.3c1.1-0.3,4.8-0.9,5-2.7S169,309,166.8,308.8z"/>
	<path class="st10_conference-12" d="M159.8,297.7c0,0-2.3,10.8-1.2,10.8s8.2,0.2,8.2,0.2c-1.3,2.7-4,4.6-7,4.9c-5.3,0.8-9.1-4.6-9.1-4.6l2.1-13.5&#10;&#9;&#9;"/>
	<path class="st14_conference-12" d="M141.9,268.3c1.2-1.1,17-8.5,22.5-5.1s5.2,5.9,4.5,9.9s-6.1,26.2-6.1,26.2c-4,1.5-8.5,1.8-12.6,0.6l1.6-16.4&#10;&#9;&#9;l-21-11.5"/>
	<polygon class="st15_conference-12 targetColor" points="142,266.6 147,270.4 168.2,259.4 154,249.3 134.1,260.6 &#9;" style="fill: rgb(68, 40, 107);"/>
	<path class="st12_conference-12" d="M89.4,262.7l-1.2,5.8c1.6-0.3,3.3-0.5,5-0.5c1.3,0.2,2.9,2.5,1.3,4s-4.3,1.4-7.1,2s-3.2,0.8-4.9,0.3&#10;&#9;&#9;s-2-2.9-2-2.9l1.4-10"/>
	<path class="st12_conference-12" d="M80.3,257.1l-1.6,8.6c0,0,2.5,2.5,10.8,2.2s0-15.2,0-15.2"/>
	<ellipse class="st14_conference-12" cx="69.5" cy="277.1" rx="11.9" ry="4.4"/>
	<polyline class="st14_conference-12" points="67.5,257.4 68,275.1 71.5,275.1 71.5,257.4 &#9;"/>
	<path class="st12_conference-12" d="M99.1,267.4l-1.2,5.8c1.6-0.3,3.3-0.5,5-0.5c1.3,0.2,2.9,2.5,1.3,4s-4.3,1.4-7.1,2s-3.2,0.8-4.9,0.3&#10;&#9;&#9;s-2-2.9-2-2.9l1.4-10"/>
	<path class="st12_conference-12" d="M75.4,236.2c0,0,9.3-7.5,15.5-8.3s9.4,5.8,9,10.3s-15.2,6.9-15.2,6.9"/>
	<path class="st16_conference-12" d="M80.3,257.1l-1.6,8.6c0,0,2.5,2.5,10.8,2.2s0-15.2,0-15.2"/>
	<path class="st16_conference-12" d="M75.4,236.2c0,0,9.3-7.5,15.5-8.3s9.4,5.8,9,10.3s-15.2,6.9-15.2,6.9"/>
	<path class="st16_conference-12" d="M80.4,238.7c1.2-1.1,17-8.5,22.5-5.1s5.2,5.9,4.5,9.9s-6.1,26.1-6.1,26.1c-4,1.6-8.5,1.8-12.6,0.6l1.6-16.4&#10;&#9;&#9;l-21-11.5"/>
	<path class="st11_conference-12" d="M68.9,212.4c0.8,0.6,8,1.5,9.5,4.8s3.8,20.4,3.8,20.4s-4.3,6.4-11.8,4.1c-2.2-0.7-13.7-21.7-14-23.9&#10;&#9;&#9;C55.6,212.2,68.9,212.4,68.9,212.4z"/>
	<path class="st15_conference-12 targetColor" d="M54.7,249.4c-0.4-0.9-0.7-1.8-0.9-2.7c-1.8-6.9-2.9-32.9,8.8-31.9C75.4,216,71,248.1,84,247.1&#10;&#9;&#9;s18.3,2.4,13,7.4C86.4,264.6,61.2,264.8,54.7,249.4z" style="fill: rgb(68, 40, 107);"/>
	<polyline class="st10_conference-12" points="62.5,211.1 62.5,213.5 68.1,213.1 &#9;"/>
	<path class="st10_conference-12" d="M71.6,201.3c0.1,0.6,1.2,9.4-1.4,11.3s-8.4-2.7-8.5-5s-2.1-7.1,0.4-8.3C64.5,198.1,71,197,71.6,201.3z"/>
	<path class="st12_conference-12" d="M71.6,201.3c0,0,2.2-1.7,2.6-3.2s-1.5-2.6-3.3-2.6s-3.4,0.5-5-0.5c-1.7-1-3.8-1-5.5,0c-1.5,1-1.7,3.4-2.7,4.7&#10;&#9;&#9;s-2.9,1.4-2.9,3.7s3.5,2.6,3.7,4.1s1.1,3.9,3.2,4.2s5,0.4,5.2,0.1s-1.3-5.5,0.1-5.9S71.7,205,71.6,201.3z"/>
	<path class="st10_conference-12" d="M101.4,199.8c0-1-0.3-2-1-2.8c-0.1-0.1-0.2-0.1-0.2-0.2c-0.1-1-0.3-1.9-1.1-2.2c-0.1-0.1-0.3-0.1-0.4-0.1&#10;&#9;&#9;c-0.3-0.1-0.7,0.2-0.7,0.5c0,0.1,0,0.1,0,0.2v1c-0.1-0.2-0.3-0.4-0.5-0.6c-0.3-0.2-0.6-0.2-0.9,0c-0.3,0.1-0.5,0.3-0.5,0.7l0.2,4.4&#10;&#9;&#9;c-0.2-0.8-0.7-2.4-1.9-1.6c-0.9,0.7-0.2,2.5-0.1,3.3c0.3,1.7,0.7,3.4,1.2,5.1c0,0.1,0.1,0.2,0.2,0.3c0,0.2-0.1,0.4-0.1,0.5&#10;&#9;&#9;c-0.3,1.1-0.6,2.7-1.5,3.4c-0.7,0.6,0.3,1.6,1,1l0.1-0.1l0,0c-0.2,0.7,0.9,1.3,1.3,0.5l0.1-0.3c0.1,0.1,0.1,0.1,0.2,0.2&#10;&#9;&#9;c-0.1,0.1-0.1,0.3-0.2,0.4c-0.3,0.9,1.1,1.2,1.3,0.4l0,0c0.2,0.3,0.5,0.5,0.9,0.3c0.1-0.1,0.3-0.2,0.3-0.3c0.2-0.4,0.1,0.8,0.3,0.5&#10;&#9;&#9;c0.3,0.1-0.4-1.1-0.2-1.6c0.9-1.7,3-3.3,3-8.7C102.1,203,103.2,200.4,101.4,199.8z"/>
	<path class="st12_conference-12" d="M96.3,196.6c0-0.3-0.5-0.3-0.5,0c0.1,1.9,0.2,3.7,0.4,5.6c0,0.3,0.5,0.3,0.5,0&#10;&#9;&#9;C96.6,200.4,96.4,198.5,96.3,196.6z"/>
	<path class="st12_conference-12" d="M98.2,195.2c0-0.1-0.2-0.2-0.3-0.2c-0.1,0-0.2,0.1-0.2,0.2l0.2,7.5c0,0.1,0.1,0.2,0.2,0.2&#10;&#9;&#9;c0.1,0,0.2-0.1,0.2-0.2L98.2,195.2z"/>
	<path class="st12_conference-12" d="M99.8,197.3c0,1.9-0.1,3.8-0.1,5.7c0,0.1,0.2,0.2,0.3,0.2c0.1,0,0.2-0.1,0.2-0.2c0.1-1.9,0.1-3.8,0.1-5.7&#10;&#9;&#9;c0-0.1-0.2-0.2-0.3-0.2C99.9,197.1,99.8,197.2,99.8,197.3z"/>
	<path class="st12_conference-12" d="M101.2,200c-0.1,1.4-0.2,2.8-0.4,4.2c0,0.3,0.4,0.3,0.5,0c0.2-1.4,0.3-2.8,0.4-4.2&#10;&#9;&#9;C101.7,199.7,101.2,199.7,101.2,200z"/>
	<path class="st11_conference-12" d="M75.6,214.6c0,0,7.1,2.6,8.9,2.4s9.6-10,9.6-10s5.4,1.5,7.1,6.3c0,0-10,14.3-14.4,15.2s-9.7-1.3-9.7-1.3"/>
	<path class="st17_conference-12" d="M120.8,254.4c0,0-0.3-12.5,5.4-12.7c5.7-0.2,13.2,3.9,13.6,10.5s1.5,19,1.5,21.4s-4.2,10.9-4.2,10.9"/>
	<path class="st14_conference-12" d="M213.1,321.6c0,0.4-0.3,5.5,0.2,6s2,3.4,3.9,3.6s3.5-0.2,3.9,1.7s-10.4,2.6-10.4,2.6s-1.1-4.5-1.6-4.4&#10;&#9;&#9;s-0.5,5-0.5,5l-2,0.4l-2-1.3l0.8-8.6l1.3-7.3"/>
	<path class="st14_conference-12" d="M221.1,328.9c-0.3,3-0.1,7.1,2.8,9c1.6,1,4.9,0.1,5.3,2.3c0.4,2-10.4,2.7-10.4,2.7s-1.2-4.5-1.6-4.3&#10;&#9;&#9;s-0.4,5-0.4,5l-2,0.4l-2-1.3l0.8-8.6l1.2-7.3"/>
	<path class="st10_conference-12" d="M216.4,273.6l1.4-1.9c0.4-0.5,0.2-1.2-0.3-1.5c-0.2-0.2-0.5-0.2-0.7-0.2c0.3-0.5,0.5-1.1,0.7-1.6&#10;&#9;&#9;c0.1-0.6-0.3-1.1-0.9-1.2c-0.4-0.1-0.7,0.1-0.9,0.3l-2.4,3.1l1.2-2.1c0.7-1.2-1.2-2.1-1.9-0.9l-2,3.5c0-0.3,0-0.7-0.1-1&#10;&#9;&#9;c0-0.9-0.2-2.1-1.4-2.1c-0.6-0.1-1.1,0.3-1.2,0.9c-0.2,0.8-0.2,1.6,0.1,2.4c0.2,0.8,0.7,2,0.2,2.8l-2.4,3.7&#10;&#9;&#9;c-0.4,0.5-0.3,1.1,0.2,1.5c0.1,0.1,0.3,0.2,0.5,0.2c0.1,0.6,0.6,1,1.2,1c0.1,0,0.2,0,0.2-0.1c0.6,0.1,1.3,0.3,1.9,0.4&#10;&#9;&#9;c0.2,0.5,0.8,0.8,1.4,0.6c0.2-0.1,0.3-0.2,0.4-0.3c1.7-2,3.9-3.5,5.5-5.7c0.4-0.5,0.2-1.2-0.3-1.6&#10;&#9;&#9;C216.7,273.7,216.6,273.6,216.4,273.6z"/>
	<path class="st18_conference-12" d="M193.6,287.6c0.8,2.4,2.9,4,5.4,4.2c4.3,0.2,12.4-8.8,12.4-8.8s0.2-8.1-3.3-9.5c0,0-5.9,5.1-6.7,5.1&#10;&#9;&#9;s-5.6-4.4-5.6-4.4"/>
	<path class="st19_conference-12" d="M193.6,287.6c0.8,2.4,2.9,4,5.4,4.2c4.3,0.2,12.4-8.8,12.4-8.8s0.2-8.1-3.3-9.5c0,0-5.9,5.1-6.7,5.1&#10;&#9;&#9;s-5.6-4.4-5.6-4.4"/>
	<path class="st10_conference-12" d="M218.3,274.4l1.1-2.1c0.3-0.5,0-1.2-0.5-1.5c-0.2-0.1-0.5-0.1-0.8-0.1c0.2-0.6,0.3-1.1,0.4-1.7&#10;&#9;&#9;c0-0.6-0.4-1.1-1-1.1c-0.4,0-0.8,0.2-1,0.6l-1.8,3.5l0.8-2.2c0.5-1.3-1.6-1.8-2-0.6s-0.9,2.5-1.4,3.8c-0.1-0.3-0.1-0.7-0.2-1&#10;&#9;&#9;c-0.2-0.9-0.5-2-1.7-1.9c-0.6,0-1,0.4-1.1,1c0,0.8,0.1,1.6,0.4,2.3c0.3,0.8,1,1.8,0.7,2.7l-1.7,4.1c-0.3,0.5-0.2,1.1,0.3,1.4&#10;&#9;&#9;c0.2,0.1,0.5,0.2,0.7,0.2c0.2,0.6,0.8,0.9,1.3,0.7c0.1,0,0.2-0.1,0.2-0.1c0.2,0.1,0.5,0.1,0.7,0c0.3,0.3,0.9,0.3,1.2,0.1&#10;&#9;&#9;c0.2,0.5,0.8,0.7,1.3,0.4c0.2-0.1,0.4-0.3,0.4-0.4c1.3-2.3,3.3-4.2,4.4-6.6c0.2-0.6-0.1-1.2-0.7-1.4&#10;&#9;&#9;C218.6,274.4,218.4,274.4,218.3,274.4z"/>
	<path class="st12_conference-12" d="M203.6,317.8l-1.6,8.6c0,0,2.5,2.5,10.8,2.2s0-15.2,0-15.2"/>
	<ellipse class="st14_conference-12" cx="192.8" cy="337.8" rx="11.9" ry="4.4"/>
	<polyline class="st14_conference-12" points="190.8,318.1 191.2,335.8 194.8,335.8 194.8,318.1 &#9;"/>
	<path class="st12_conference-12" d="M198.7,297c0,0,9.3-7.5,15.5-8.3s9.4,5.8,9,10.3s-15.2,6.9-15.2,6.9"/>
	<path class="st19_conference-12" d="M203.6,317.8l-1.6,8.6c0,0,2.5,2.5,10.8,2.2s0-15.2,0-15.2"/>
	<path class="st19_conference-12" d="M198.7,297c0,0,9.3-7.5,15.5-8.3s9.4,5.8,9,10.3s-15.2,6.9-15.2,6.9"/>
	<path class="st12_conference-12" d="M203.7,299.4c1.2-1.1,17-8.5,22.5-5.1s5.2,5.9,4.5,10s-6.1,26.1-6.1,26.1c-4,1.6-8.5,1.8-12.6,0.6l1.6-16.4&#10;&#9;&#9;l-21-11.5"/>
	<path class="st18_conference-12" d="M192.2,273.1c0.8,0.6,8,1.5,9.5,4.8s3.8,20.4,3.8,20.4s-4.3,6.4-11.8,4.1c-2.2-0.7-13.7-21.7-14-23.9&#10;&#9;&#9;C178.9,272.9,192.2,273.1,192.2,273.1z"/>
	<path class="st15_conference-12 targetColor" d="M178,310.1c-0.4-0.9-0.7-1.8-0.9-2.7c-1.8-6.9-2.9-32.9,8.8-31.9c12.8,1.2,8.5,33.3,21.5,32.3&#10;&#9;&#9;s18.3,2.4,13,7.4C209.7,325.3,184.5,325.5,178,310.1z" style="fill: rgb(68, 40, 107);"/>
	<path class="st10_conference-12" d="M196.8,264.1c0.1,0.5,1,8-1.2,9.6s-7.1-2.3-7.3-4.2s-1.8-6.1,0.3-7.1S196.2,260.5,196.8,264.1z"/>
	<path class="st18_conference-12" d="M198.7,292.5c1.2,2.2,3.7,3.3,6.1,3c4.2-0.6,10.5-11,10.5-11s-1.3-8-5.1-8.6c0,0-4.8,6.1-5.6,6.3&#10;&#9;&#9;s-2.9-4.3-2.9-4.3"/>
	<path class="st16_conference-12" d="M195.1,263.6c2.5,0,2.9-2.8,2.5-4.6c-0.7-3.4-5.4-3.1-7.9-2.7c-4,0.6-7.2,3.5-8.1,7.3c-1.3,5.7-6,7-4.8,11.1&#10;&#9;&#9;s4.1,3.4,2.9,6.7s3.4,10.1,8,9.8s2.1-9.4,4.8-9.8s6.3-0.1,6.3-2.6s-7.4-4.8-6.3-9.2S195.1,263.6,195.1,263.6z"/>
	<path class="st10_conference-12" d="M157.8,254.6l0.1-0.1c0.9-0.6,0.1-2-0.8-1.4l-0.2,0.1c0-0.5-0.4-0.8-0.8-0.8c-0.1,0-0.3,0-0.4,0.1&#10;&#9;&#9;c-0.9,0.5-1.9,0.9-2.8,1.4c0.1-0.1,0.2-0.3,0.4-0.4c0.5-0.7-0.1-1.8-1-1.3c-1.1,0.7-2.2,1.4-3.3,2.2c-0.4,0.3-0.5,0.8-0.2,1.2&#10;&#9;&#9;c0,0,0,0,0,0l-0.2,0.1c-0.3,0.6-0.3,1.3-0.1,1.9c-0.5,0.4-0.2,1.1,0.3,1.3l0.1,0.1l-1,0.3c-1,0.3-0.6,1.9,0.4,1.6l5-1.7&#10;&#9;&#9;c1.3-0.3,2.5-1,3.5-1.9c0.2-0.2,0.3-0.6,0.1-0.9c0.4-0.2,0.7-0.4,1-0.7c0.3-0.3,0.4-0.7,0.1-1C157.9,254.7,157.8,254.7,157.8,254.6&#10;&#9;&#9;z"/>
	<path class="st17_conference-12" d="M137.5,257.7c0,0,8.9-3.6,11.6-4.4c0,0,2.8,1.9,2,7c0,0-8,8.2-13,10.7"/>
	<ellipse class="st14_conference-12" cx="131.9" cy="309.9" rx="11.9" ry="4.4"/>
	<polyline class="st14_conference-12" points="129.9,290.2 130.3,307.9 133.8,307.9 133.8,290.2 &#9;"/>
	<path class="st15_conference-12 targetColor" d="M115.6,280.2c-0.4-0.9-0.7-1.8-0.9-2.7c-1.8-6.9-2.9-32.9,8.8-31.9c12.8,1.2,8.5,33.3,21.5,32.3&#10;&#9;&#9;s18.3,2.4,13,7.4C147.4,295.4,122.1,295.7,115.6,280.2z" style="fill: rgb(68, 40, 107);"/>
	<path class="st10_conference-12" d="M133.7,230.9c0,0,3.3,9.4,0.2,11.7c-2.2,1.6-6.1,1.1-7.7-2.6S130.1,228.8,133.7,230.9z"/>
	<path class="st12_conference-12" d="M128.7,239c2.5-1.8,4.3-4.5,5-7.4c1-4.7-9.8-4.2-12,0.2s-0.4,11.4,6.8,11.3L128.7,239z"/>
	<path class="st12_conference-12" d="M124.4,232.9c0,0-6.5-2.7-9.7,1.5s-4,17.9-2.2,20.7c1.8,2.8,8.7,1.4,9.5,0.5c0,0-5.1-15-3-18.4&#10;&#9;&#9;s5.1-1.7,5.1-1.7"/>
	<path class="st12_conference-12" d="M273,362.7c-0.3,3-0.1,7.1,2.8,9c1.6,1,4.9,0.1,5.3,2.3c0.4,2-10.4,2.7-10.4,2.7s-1.1-4.5-1.6-4.3&#10;&#9;&#9;s-0.4,5-0.4,5l-2,0.4l-2-1.3l0.8-8.6l1.2-7.3"/>
	<path class="st12_conference-12" d="M265,355.5c0,0.4-0.3,5.5,0.2,6s2,3.4,3.9,3.6s3.5-0.2,3.9,1.7s-10.4,2.6-10.4,2.6s-1.1-4.5-1.6-4.4&#10;&#9;&#9;s-0.5,5-0.5,5l-2,0.4l-2-1.3l0.8-8.6l1.3-7.3"/>
	<path class="st16_conference-12" d="M255.5,351.6l-1.6,8.6c0,0,2.5,2.5,10.8,2.2s0-15.2,0-15.2"/>
	<path class="st16_conference-12" d="M250.6,329.2c0,0,9.3-7.5,15.5-8.3s9.4,5.8,9,10.3s-15.2,6.9-15.2,6.9"/>
	<path class="st16_conference-12" d="M255.6,333.2c1.2-1.1,17-8.5,22.5-5.1s5.2,5.9,4.5,9.9s-6.1,26.2-6.1,26.2c-4,1.6-8.5,1.8-12.6,0.6l1.6-16.4&#10;&#9;&#9;l-21-11.5"/>
	<polygon class="st15_conference-12 targetColor" points="257,330.5 262,334.3 283.3,323.3 269.1,313.2 249.1,324.5 &#9;" style="fill: rgb(68, 40, 107);"/>
	<ellipse class="st14_conference-12" cx="244.7" cy="371.6" rx="11.9" ry="4.4"/>
	<polyline class="st14_conference-12" points="242.7,351.9 243.1,369.6 246.7,369.6 246.7,351.9 &#9;"/>
	<path class="st11_conference-12" d="M244.1,306.9c0.8,0.6,8,1.5,9.5,4.8s3.8,20.4,3.8,20.4s-4.3,6.4-11.8,4.1c-2.2-0.7-13.7-21.7-14-23.9&#10;&#9;&#9;C230.8,306.7,244.1,306.9,244.1,306.9z"/>
	<path class="st15_conference-12 targetColor" d="M229.9,343.9c-0.4-0.9-0.7-1.8-0.9-2.7c-1.8-6.9-2.9-32.9,8.8-31.9c12.8,1.2,8.5,33.2,21.5,32.3&#10;&#9;&#9;c13-1,18.3,2.4,13,7.4C261.6,359.1,236.4,359.3,229.9,343.9z" style="fill: rgb(68, 40, 107);"/>
	<path class="st10_conference-12" d="M248.7,297.9c0.1,0.5,1,8-1.2,9.6s-7.1-2.3-7.3-4.2s-1.8-6.1,0.3-7.1S248.1,294.3,248.7,297.9z"/>
	<path class="st12_conference-12" d="M246.6,292.2c-2.8-1.7-7.5-1.2-9.8,1.1c-0.6,0.7-1.2,1.4-1.6,2.2c-0.2,0.4-0.4,0.7-0.7,1.1&#10;&#9;&#9;c-0.7,1.2-1.2,2.5-1.6,3.9c-0.7,2.1-1.2,4.2-1.6,6.3c-0.1,0.8-3.9,14.5-3.4,14.9c0.9,0.7,5.8,2.1,6.9,2.3c0.7,0.1,10,0,10,0&#10;&#9;&#9;c0.1-4.1,0-8.1,0-12.2c0-2.2,0-4.5,0.1-6.7c0-0.4,0-0.8,0.1-1.2c-0.5-0.2-0.9-0.5-1.2-1c-0.3-0.6-0.3-1.4,0.1-2&#10;&#9;&#9;c0.3-0.7,1.1-1,1.8-0.7c0,0,0.1,0.1,0.1,0.1c0.3-0.7,0.7-1.3,1.3-1.7l2.4,0.1C250.3,296.3,249.1,293.4,246.6,292.2z"/>
	<path class="st10_conference-12" d="M271.7,319l0.1-0.1c0.4-0.3,0.5-0.8,0.2-1.1c-0.2-0.3-0.7-0.5-1-0.3l-0.2,0.1c0-0.5-0.4-0.8-0.8-0.8&#10;&#9;&#9;c-0.1,0-0.3,0-0.4,0.1c-0.9,0.5-1.9,0.9-2.8,1.4c0.1-0.1,0.2-0.3,0.4-0.4c0.5-0.7-0.1-1.8-1-1.3c-1.1,0.7-2.2,1.4-3.3,2.2&#10;&#9;&#9;c-0.4,0.3-0.5,0.8-0.2,1.2c0,0,0,0,0,0l-0.2,0.1c-0.4,0.3-0.5,0.7-0.2,1.1c-0.1,0.3-0.1,0.5,0.1,0.8c-0.5,0.4-0.2,1.1,0.3,1.3&#10;&#9;&#9;l0.1,0.1l-1,0.3c-1,0.4-0.6,1.9,0.4,1.6l5-1.7c1.3-0.3,2.5-1,3.5-1.9c0.2-0.2,0.3-0.6,0.1-0.9c0.4-0.2,0.7-0.4,1-0.7&#10;&#9;&#9;c0.3-0.3,0.4-0.7,0.1-1C271.8,319.1,271.7,319,271.7,319z"/>
	<path class="st11_conference-12" d="M253.3,335c5.6,0.4,11.1-9.5,11.1-9.5c0.8-5.1-1.6-6.6-1.6-6.6c-2.7,0.8-9.9,5-9.9,5h-4.5&#10;&#9;&#9;C248.4,323.8,251,334.8,253.3,335z"/>
	<path class="st12_conference-12" d="M317.9,327c0,0.4-0.3,5.5,0.2,6s2,3.4,3.9,3.6s3.5-0.2,3.9,1.7s-10.4,2.7-10.4,2.7s-1.1-4.5-1.6-4.4&#10;&#9;&#9;s-0.5,5-0.5,5l-2,0.4l-2-1.3l0.8-8.6l1.3-7.3"/>
	<path class="st12_conference-12" d="M325.9,334.2c-0.3,3-0.1,7.1,2.8,9c1.6,1,4.9,0.1,5.3,2.3c0.4,2-10.4,2.7-10.4,2.7s-1.2-4.5-1.6-4.4&#10;&#9;&#9;s-0.4,5-0.4,5l-2,0.4l-2-1.3l0.8-8.6l1.2-7.3"/>
	<path class="st14_conference-12" d="M308.4,323.1l-1.6,8.6c0,0,2.5,2.5,10.8,2.2s0-15.2,0-15.2"/>
	<ellipse class="st14_conference-12" cx="297.6" cy="343.2" rx="11.9" ry="4.4"/>
	<polyline class="st14_conference-12" points="295.6,323.5 296,341.2 299.6,341.2 299.6,323.5 &#9;"/>
	<path class="st11_conference-12" d="M303.5,302.3c0,0,9.3-7.5,15.5-8.3s9.4,5.8,9,10.3s-15.2,6.9-15.2,6.9"/>
	<path class="st14_conference-12" d="M308.5,304.8c1.2-1.1,17-8.5,22.5-5.1s5.2,5.9,4.5,10s-6.1,26.1-6.1,26.1c-4,1.6-8.5,1.8-12.6,0.6l1.6-16.4&#10;&#9;&#9;l-21-11.5"/>
	<path class="st17_conference-12" d="M297,278.5c0.8,0.6,8,1.5,9.5,4.8s3.8,20.4,3.8,20.4s-4.3,6.4-11.8,4.1c-2.2-0.7-13.7-21.7-14-23.9&#10;&#9;&#9;C283.7,278.2,297,278.5,297,278.5z"/>
	<path class="st15_conference-12 targetColor" d="M282.8,315.4c-0.4-0.9-0.7-1.8-0.9-2.7c-1.8-6.9-2.9-32.9,8.8-31.9c12.8,1.2,8.5,33.3,21.5,32.3&#10;&#9;&#9;s18.3,2.4,13,7.4C314.5,330.7,289.3,330.9,282.8,315.4z" style="fill: rgb(68, 40, 107);"/>
	<path class="st10_conference-12" d="M301.6,269.5c0.1,0.5,1,8-1.2,9.6s-7.1-2.3-7.3-4.2s-1.8-6.1,0.3-7.1S301,265.8,301.6,269.5z"/>
	<path class="st12_conference-12" d="M299.8,270.4l2.4,0.1c0.9-2.6-0.2-5.5-2.7-6.7c-3-1.6-6.7-1.3-9.4,0.8c-0.7-1.4-1.8-2.6-3.1-3.5&#10;&#9;&#9;c-2.4-1.6-5.8-1.9-7.3,1.1c-2,4,1.9,8.8,6,9.3c-0.1,2,0.5,4.1,1.7,5.7c3,3.9,8.2,3.3,12.2,1.3c0.5-0.6,0.9-1.4,1-2.1&#10;&#9;&#9;c0-1.1-0.4-2.2-1.2-3.1c-0.5-0.5-1.1-0.8-0.8-1.6C298.9,271.1,299.3,270.7,299.8,270.4z"/>
	<polygon class="st11_conference-12" points="313.9,306 318.9,309.8 340.2,298.9 325.9,288.7 306,300 &#9;"/>
	<path class="st10_conference-12" d="M329.7,294.1l0.1-0.1c0.4-0.3,0.5-0.8,0.2-1.1c-0.2-0.3-0.7-0.5-1-0.3l-0.2,0.1c0-0.5-0.4-0.8-0.8-0.8&#10;&#9;&#9;c-0.1,0-0.3,0-0.4,0.1c-0.9,0.5-1.9,0.9-2.8,1.4l0.4-0.4c0.5-0.7-0.1-1.8-1-1.3c-1.1,0.7-2.2,1.4-3.3,2.2c-0.4,0.3-0.5,0.8-0.2,1.2&#10;&#9;&#9;c0,0,0,0,0,0.1l-0.2,0.1c-0.3,0.3-0.4,0.7-0.2,1.1c-0.1,0.2-0.1,0.5,0.1,0.8c-0.5,0.4-0.2,1.1,0.3,1.3l0.1,0.1l-1,0.3&#10;&#9;&#9;c-1,0.4-0.6,1.9,0.4,1.6l5-1.7c1.3-0.3,2.5-1,3.5-1.9c0.2-0.2,0.3-0.6,0.1-0.9c0.4-0.2,0.7-0.4,1-0.7c0.3-0.3,0.4-0.7,0.1-1&#10;&#9;&#9;C329.8,294.2,329.8,294.1,329.7,294.1z"/>
	<path class="st17_conference-12" d="M309.9,310.5c5.5-1.1,13-10.7,13-10.7c0.8-5.1-2-7-2-7c-2.6,0.8-11.6,4.4-11.6,4.4l-5.4,2.6l0.6,8&#10;&#9;&#9;C304.6,307.8,307.3,311,309.9,310.5z"/>
</g>
<g id="plant_conference-12">
	<path class="st12_conference-12" d="M459,236c-0.1-0.4-0.2-0.7-0.5-1c-0.4-0.5-0.9-0.9-1.4-1.2c-7.2-4.9-17.1-6.2-24.7-1.4&#10;&#9;&#9;c-1.7,1.1-4.3,3.6-3.3,5.9c0.6,1.4,2.4,2.1,3.6,2.7c4.2,1.7,8.5,2.8,13,3.4c1.6,0.3,3.2,0.5,4.9,0.7c2.3,0.2,4.5-0.7,5.9-2.5&#10;&#9;&#9;C457.7,241,459.5,238.1,459,236z"/>
	<path class="st15_conference-12 targetColor" d="M428.9,237.1c0,0,6.5,5.9,17.9,5.1S459,236,459,236s-2.9,37.5-4.5,38.1s-7.3,3.4-10.1,3.6s-11.6-3.3-11.8-4.3&#10;&#9;&#9;S428.9,237.1,428.9,237.1z" style="fill: rgb(68, 40, 107);"/>
	<path class="st11_conference-12" d="M431,182.5c-0.4-0.7-1.4-0.1-1.1,0.6c7.7,15.6,9.2,33.2,10.6,50.2c0.1,0.8,1.3,0.8,1.2,0&#10;&#9;&#9;C440.4,216.1,438.8,198.3,431,182.5z"/>
	<path class="st11_conference-12" d="M430,182.7c0,0,2.2,8.1-0.1,12.1s-4.1,4.9-1.4,9.9s9.8,5.7,10.3,9.6S435.4,189.5,430,182.7z"/>
	<path class="st11_conference-12" d="M454.7,197.3c-5.9,12.5-9.3,26-9.8,39.8c0,1,1.5,1,1.5,0c0.5-13.6,3.8-26.9,9.6-39.1&#10;&#9;&#9;C456.5,197.2,455.1,196.4,454.7,197.3z"/>
	<path class="st11_conference-12" d="M455.8,201.2c0-0.8-0.2-2.4-0.1-3.8c-0.3,0.2-0.6,0.4-0.9,0.5c-2.9,7.1-7.3,23.9-8.6,29.1&#10;&#9;&#9;c1.8-3.9,9.1-4.4,11.3-9.9c0.9-2.3,1-4.9,0.1-7.3C456.5,207.1,455.9,204.2,455.8,201.2z"/>
</g>
<g id="screen_conference-12">
	<polygon class="st15_conference-12 targetColor" points="290,144.3 290,52.8 401.2,118.3 401.2,208.9 &#9;" style="fill: rgb(68, 40, 107);"/>
	<path class="st12_conference-12" d="M329.4,95.6c-2.3-2.4-4.9-3.7-7.2-3.7c-0.4,0-0.9,0-1.3,0.1c-1.8,0.4-3.4,1.5-4.5,3.1c-1-1.4-2.2-2.8-3.4-4.1&#10;&#9;&#9;c1.8-2.1,4.1-3.5,6.8-4.1c4.5-1,9.3,0.8,13.4,5c1.2,1.2,2.3,2.6,3.2,4.1c-1.5,0.9-3,1.9-4.4,2.8C331.2,97.7,330.4,96.6,329.4,95.6z&#10;&#9;&#9;"/>
	<path class="st0_conference-12" d="M329.4,132.6c2.5-0.8,4.6-3.1,5.9-6.6c1.6-4.7,1.8-9.8,0.7-14.6c-0.6-3.1-1.8-6.1-3.4-8.9&#10;&#9;&#9;c1.5-1,2.9-1.9,4.4-2.8c1.9,3.3,3.3,6.9,4.1,10.6c1.3,5.8,1,11.9-0.9,17.5c-1.9,5-5.1,8.4-9.1,9.7&#10;&#9;&#9;C330.6,135.8,330,134.2,329.4,132.6z"/>
	<path class="st13_conference-12" d="M309.5,99.6c0.7-1.8,1.6-3.5,2.7-5c1.2,1.3,2.4,2.8,3.4,4.3c-0.5,0.8-0.9,1.7-1.2,2.6&#10;&#9;&#9;c-1.6,4.7-1.8,9.8-0.7,14.6c0.9,4.9,3.2,9.4,6.5,13.1c2.6,2.6,5.4,3.9,7.9,3.6c0.6,1.6,1.2,3.3,1.7,5l0,0c-0.8,0.2-1.6,0.3-2.4,0.3&#10;&#9;&#9;c-3.8,0-7.6-1.8-11-5.3c-4-4.4-6.8-9.8-7.9-15.7C307.3,111.3,307.6,105.3,309.5,99.6z"/>
	<ellipse transform="matrix(0.9939 -0.1106 0.1106 0.9939 -10.4073 36.6939)" class="st13_conference-12" cx="325.5" cy="112.2" rx="3" ry="5.5"/>
	<path class="st13_conference-12" d="M309,141.2l27.7,13.9c0.4,0.3,0.6,0.9,0.3,1.3c-0.2,0.4-0.7,0.5-1.1,0.4l-27.7-13.9c-0.4-0.3-0.6-0.9-0.3-1.3&#10;&#9;&#9;C308.1,141.2,308.6,141,309,141.2z"/>
	<path class="st13_conference-12" d="M308.6,136.4l27.7,13.9c0.4,0.3,0.6,0.9,0.3,1.3c-0.2,0.4-0.7,0.5-1.1,0.4l-27.7-13.9&#10;&#9;&#9;c-0.5-0.2-0.6-0.8-0.4-1.2C307.5,136.4,308.1,136.2,308.6,136.4z"/>
	<path class="st12_conference-12" d="M377.9,151.3v13.9c0,4-6.3,4-6.3,0v-13.9C371.6,147.2,377.9,147.2,377.9,151.3z"/>
	<path class="st0_conference-12" d="M369.4,137v22.4c0,4-6.3,4-6.3,0V137C363.1,133,369.4,133,369.4,137z"/>
	<path class="st13_conference-12" d="M359.3,120.8v34.4c0,4-6.3,4-6.3,0v-34.4C353,116.8,359.3,116.8,359.3,120.8z"/>
</g>
<g id="character_conference-12">
	
		<linearGradient id="SVGID_00000092442608176714529160000003246586031861326720_-conference-12" gradientUnits="userSpaceOnUse" x1="272.9418" y1="273.758" x2="292.5718" y2="291.938" gradientTransform="matrix(1 0 0 -1 0 502)">
		<stop offset="0" style="stop-color:#FF9F9F"/>
		<stop offset="1" style="stop-color:#D9616F"/>
	</linearGradient>
	<polyline style="fill:url(#SVGID_00000092442608176714529160000003246586031861326720_);" points="311.2,221.9 280.8,243 &#10;&#9;&#9;246.6,223.6 281.6,205 &#9;"/>
	<polyline class="st12_conference-12" points="259.5,217.1 259.5,219.6 284.9,234.1 302,224.4 302,222.1 &#9;"/>
	<polygon class="st13_conference-12" points="259.5,217.1 284.6,231.7 302,222.1 276.8,207.4 &#9;"/>
	<path class="st10_conference-12" d="M263.5,113.5c0.6,0.4,1.3,0.8,1.9,1.1c-0.4-0.5-0.5-1.1-0.5-1.7c0-0.6,0.5-1.1,1.2-1c0.3,0,0.5,0.1,0.7,0.3&#10;&#9;&#9;c1.6,1.5,3.2,2.9,4.8,4.4c0-0.2,0-0.3,0-0.4c0-1,0.1-1.9,0.5-2.8c0.9-1.4,2-0.2,2.2,1.2c0.3,1.9,0,3.7,1.1,5.4&#10;&#9;&#9;c0.7,0.8,1.6,1.5,2.5,2c1,0.6,1.9,1.2,2.9,1.8c0.5,0.3,0.6,1,0.3,1.5c-0.2,0.3-0.5,0.5-0.9,0.5c0.4,0.4,0.3,1.1-0.1,1.5&#10;&#9;&#9;c-0.1,0.1-0.3,0.2-0.5,0.2c0.2,0.9-0.6,2-1.5,1.3c-2.2-1.7-4.5-3.2-7-4.5c-2.5-0.9-5-1.8-7.5-2.9c-1.3-0.5-0.7-2.6,0.6-2.1l0.2,0.1&#10;&#9;&#9;l-2.2-1.1c-1.1-0.5-0.2-2.4,0.9-2l0.3,0.1l0,0h0l0.7,0.3l-1-0.7c-0.6-0.4-1.2-0.8-1.3-1.6c-0.1-0.6,0.3-1.2,0.9-1.3&#10;&#9;&#9;C263,113.3,263.3,113.4,263.5,113.5z"/>
	<path class="st12_conference-12" d="M271.3,117.7c0.1-0.1,0.2-0.1,0.3-0.1c0.1,0.1,0.1,0.2,0.1,0.3l0,0c-0.8,1.2-0.8,2.8,0,4&#10;&#9;&#9;c0.2,0.3-0.3,0.5-0.4,0.2C270.4,120.8,270.4,119,271.3,117.7z"/>
	<path class="st12_conference-12" d="M265.4,114.3c1.6,0.9,3.1,1.9,4.5,3c0.2,0.2,0,0.6-0.2,0.4c-1.5-1.1-3-2.1-4.5-3c-0.1-0.1-0.1-0.2-0.1-0.3&#10;&#9;&#9;C265.1,114.2,265.3,114.2,265.4,114.3L265.4,114.3z"/>
	<path class="st12_conference-12" d="M263.5,116.3l5.1,2.4c0.3,0.1,0,0.5-0.2,0.4l-5.1-2.4C263,116.6,263.2,116.2,263.5,116.3z"/>
	<path class="st12_conference-12" d="M263.8,118.9c1.4,0.5,2.8,1,4.2,1.4c0.3,0.1,0.2,0.6-0.1,0.5c-1.4-0.4-2.8-0.9-4.2-1.4&#10;&#9;&#9;C263.4,119.3,263.5,118.8,263.8,118.9z"/>
	<path class="st10_conference-12" d="M343.9,116.3c-0.7,0.2-1.4,0.4-2.2,0.6c0.5-0.4,0.8-0.9,1-1.5c0.1-0.6-0.2-1.2-0.8-1.3&#10;&#9;&#9;c-0.3-0.1-0.5,0-0.8,0.1c-1.9,1-3.9,1.9-5.8,2.9c0-0.1,0.1-0.3,0.1-0.4c0.3-0.9,0.4-1.9,0.3-2.8c-0.4-1.6-1.9-0.7-2.5,0.6&#10;&#9;&#9;c-0.8,1.7-1,3.6-2.5,4.9c-0.9,0.6-1.9,1-3,1.2c-1.1,0.3-2.2,0.6-3.3,0.9c-0.6,0.2-0.9,0.8-0.7,1.3c0.1,0.3,0.4,0.6,0.7,0.7&#10;&#9;&#9;c-0.5,0.3-0.6,1-0.3,1.5c0.1,0.2,0.2,0.3,0.4,0.4c-0.5,0.8,0.1,2.1,1.1,1.6c2.6-1,5.2-1.8,7.9-2.3c2.7-0.2,5.3-0.4,8-0.7&#10;&#9;&#9;c1.4-0.2,1.4-2.3,0-2.2h-0.2l2.4-0.4c1.2-0.2,0.9-2.3-0.3-2.1h-0.3h0l-0.8,0.1l1.1-0.4c0.7-0.2,1.4-0.4,1.7-1.1&#10;&#9;&#9;c0.3-0.5,0-1.2-0.5-1.5C344.4,116.3,344.2,116.3,343.9,116.3z"/>
	<path class="st12_conference-12" d="M335.3,118.2c0-0.1-0.2-0.2-0.3-0.1c-0.1,0-0.2,0.2-0.1,0.3c0.4,1.4-0.1,2.9-1.1,3.8&#10;&#9;&#9;c-0.2,0.2,0.1,0.6,0.3,0.3C335.2,121.4,335.7,119.7,335.3,118.2z"/>
	<path class="st12_conference-12" d="M341.9,116.5c-1.8,0.5-3.5,1-5.2,1.6c-0.3,0.1-0.2,0.6,0.1,0.5c1.7-0.6,3.4-1.1,5.2-1.6&#10;&#9;&#9;c0.1-0.1,0.2-0.2,0.1-0.3C342.1,116.6,342,116.5,341.9,116.5z"/>
	<path class="st12_conference-12" d="M343.1,119l-5.5,0.8c-0.3,0-0.2,0.5,0.1,0.5l5.5-0.8C343.5,119.4,343.4,119,343.1,119z"/>
	<path class="st12_conference-12" d="M342.1,121.4c-1.5,0.1-3,0.2-4.5,0.2c-0.3,0-0.3,0.5,0,0.5c1.5,0,3-0.1,4.5-0.2&#10;&#9;&#9;C342.4,121.9,342.4,121.4,342.1,121.4z"/>
	<path class="st12_conference-12" d="M281.2,197.1c0,0-0.1,6-0.8,7s-7,4.3-7.4,5.9s0.8,3.7,3.8,2.9s10.2-5.6,10.2-5.6v-13.1"/>
	<path class="st12_conference-12" d="M305.4,204l0.8,6.6c0,0-2.8,10.1-1.7,11.3s5.1,2.6,6.7,0s-0.7-12-0.7-12l-0.1-7.1"/>
	<path class="st11_conference-12" d="M290.9,134.7c0,0-7.9,31.9-8.2,36.8s-2.7,28.7-2.7,28.7s7.5,3.3,12.5,1.6l3.9-29.9l4.4-31.4&#10;&#9;&#9;C300.8,140.4,292.7,132.4,290.9,134.7z"/>
	<path class="st11_conference-12" d="M305.9,142.2c5.5,23.5,6.2,41.2,9,61.8c0,0-12,4.4-14.7,0.1c-1.8-20.9-3.2-41.9-3.9-62.9L305.9,142.2z"/>
	<path class="st14_conference-12" d="M328,117.3c-5,1.9-11,3.7-15.1,3.1c-5.2-0.7-10.2-2-15.1-3.8c-0.7-0.2-7.8-3-10.5-0.6s-2,10.1-2,10.1&#10;&#9;&#9;l-9.7-8.4c-3.6,1.3-5,5-5.4,8.7c0.2,0.2,0.3,0.3,0.4,0.4c0.7,0.8,1.4,1.6,2.1,2.4c3.2,3.6,6.8,7.7,11.5,9.2&#10;&#9;&#9;c1.8,0.5,3.8,0.4,5.6-0.4c1.4-0.5,3.4-2.2,4.9-1.6c0.4,0.1,0.8,0.4,1.2,0.4c1.1-0.1,2.6-1.9,3.7-2.5c2.9-1.5,6.3-1.7,9.5-1.9&#10;&#9;&#9;c3.5-0.1,7-0.5,10.4-1.1c1-0.2,11.7-3,12-2.5C329.3,124.6,328.8,122,328,117.3z"/>
	<path class="st10_conference-12" d="M290.2,110.1c-0.7,3.4-0.1,8,3.5,8.6c4.6,0.7,5.8-2.5,5.5-6.3c-0.2-3.1-1.8-7.9-6-6.5c-1,0.4-1.9,1.2-2.3,2.2&#10;&#9;&#9;C290.6,108.6,290.3,109.3,290.2,110.1z"/>
	<path class="st12_conference-12" d="M289.9,110.8c-1.9-1-3-3-2.9-5.2c0.2-2.1,2.2-4.7,4.5-3.7c1.6,0.7,1.1,0.7,1.1,0.7c0.7-0.9,1.9-1.3,3-1.1&#10;&#9;&#9;c2.2,0.2,2.6,1.5,2.6,1.5s2.5,0.8,3.1,2.4c0.8,1.8-1,7.2-1.8,8.7s-1.3-1.6-1.6-2.8c-0.2-1-0.9-1.9-1.8-2.3c-1.4-0.4-2,0.8-3.1,1.3&#10;&#9;&#9;C292.2,111.1,291,111.2,289.9,110.8z"/>
	<path class="st14_conference-12" d="M298.7,143.5c2.5,0,4.9-0.4,7.3-1.3l0.5-15.4l-18.6,8.7c0,0,0.7,3.7,1.5,7.1&#10;&#9;&#9;C292.4,143.5,295.5,143.8,298.7,143.5z"/>
	<rect x="278.9" y="158.5" class="st13_conference-12" width="2.5" height="62.3"/>
	<polyline class="st12_conference-12" points="260.7,152.5 260.7,156.1 286.3,169.6 304.5,167.9 305.3,165.4 &#9;"/>
	<path class="st13_conference-12" d="M280.5,152.5c0,0-20.9-0.5-19.8,0s26.2,14.6,26.2,14.6l18.4-1.7L280.5,152.5z"/>
	<path class="st12_conference-12" d="M284.1,142.2c-0.8-0.1-1.6,0.4-1.7,1.2c0,0,0,0,0,0c0,0.2,0,0.4,0,0.7c0,0,0,0.1,0,0.1&#10;&#9;&#9;c-3.8,2.9-4.5,7.8-4.9,12.4c-0.1,0.8,1.2,0.8,1.2,0c0.4-4,0.9-8.5,4.1-11.1c0.4,0.7,1.3,0.9,2.1,0.6&#10;&#9;&#9;C286.4,145.2,285.8,142.4,284.1,142.2z"/>
</g>
</svg>