<svg id="_0492_convention" xmlns="http://www.w3.org/2000/svg" xmlns:xlink="http://www.w3.org/1999/xlink" viewBox="0 0 500 500" data-imageid="conference-1" imageName="Conference" class="illustrations_image" style="width: 151px;"><defs><style>.cls-1_conference-1{clip-path:url(#clippath);}.cls-2_conference-1{fill:none;}.cls-2_conference-1,.cls-3_conference-1,.cls-4_conference-1,.cls-5_conference-1,.cls-6_conference-1,.cls-7_conference-1,.cls-8_conference-1,.cls-9_conference-1,.cls-10_conference-1,.cls-11_conference-1,.cls-12_conference-1,.cls-13_conference-1,.cls-14_conference-1,.cls-15_conference-1,.cls-16_conference-1,.cls-17_conference-1,.cls-18_conference-1,.cls-19_conference-1,.cls-20_conference-1,.cls-21_conference-1,.cls-22_conference-1,.cls-23_conference-1{stroke-width:0px;}.cls-3_conference-1{fill:url(#linear-gradient);}.cls-4_conference-1{isolation:isolate;opacity:.18;}.cls-4_conference-1,.cls-23_conference-1{fill:#68e1fd;}.cls-5_conference-1{fill:url(#linear-gradient-11-conference-1);}.cls-6_conference-1{fill:url(#linear-gradient-12-conference-1);}.cls-7_conference-1{fill:url(#linear-gradient-13-conference-1);}.cls-8_conference-1{fill:url(#linear-gradient-10-conference-1);}.cls-9_conference-1{fill:url(#linear-gradient-4-conference-1);}.cls-10_conference-1{fill:url(#linear-gradient-2-conference-1);}.cls-11_conference-1{fill:url(#linear-gradient-3-conference-1);}.cls-12_conference-1{fill:url(#linear-gradient-8-conference-1);}.cls-13_conference-1{fill:url(#linear-gradient-9-conference-1);}.cls-14_conference-1{fill:url(#linear-gradient-7-conference-1);}.cls-15_conference-1{fill:url(#linear-gradient-5-conference-1);}.cls-16_conference-1{fill:url(#linear-gradient-6-conference-1);}.cls-17_conference-1{fill:#5a3b27;}.cls-18_conference-1{fill:#231f20;}.cls-19_conference-1{fill:#e0be99;}.cls-20_conference-1{fill:#c14834;}.cls-21_conference-1{fill:#fff;}.cls-22_conference-1{fill:#ffaa71;}</style><linearGradient id="linear-gradient-conference-1" x1="307.5" y1="2922.32" x2="308.97" y2="3131.78" gradientTransform="translate(-56.57 3335.28) scale(1 -1)" gradientUnits="userSpaceOnUse"><stop offset="0" stop-color="#231f20"/><stop offset=".08" stop-color="#231f20" stop-opacity=".69"/><stop offset=".21" stop-color="#231f20" stop-opacity=".32"/><stop offset="1" stop-color="#231f20" stop-opacity="0"/></linearGradient><linearGradient id="linear-gradient-2-conference-1" x1="307.53" y1="2919.74" x2="308.91" y2="3116.11" xlink:href="#linear-gradient-conference-1"/><linearGradient id="linear-gradient-3-conference-1" x1="201.43" y1="3119.74" x2="201.92" y2="3023.71" gradientTransform="translate(-31 3367.76) scale(1 -1)" xlink:href="#linear-gradient-conference-1"/><linearGradient id="linear-gradient-4-conference-1" x1="227.43" y1="3062.75" x2="230.73" y2="3167.86" gradientTransform="translate(-56.57 3335.28) scale(1 -1)" gradientUnits="userSpaceOnUse"><stop offset="0" stop-color="#231f20"/><stop offset=".08" stop-color="#231f20" stop-opacity=".69"/><stop offset=".21" stop-color="#231f20" stop-opacity=".32"/><stop offset="1" stop-color="#231f20" stop-opacity="0"/></linearGradient><linearGradient id="linear-gradient-5-conference-1" x1="246.76" y1="3090.84" x2="268.99" y2="3134.02" xlink:href="#linear-gradient-conference-1"/><linearGradient id="linear-gradient-6-conference-1" x1="232.7" y1="3095.46" x2="161.23" y2="3118.79" xlink:href="#linear-gradient-conference-1"/><linearGradient id="linear-gradient-7-conference-1" x1="218.55" y1="3114.17" x2="233.5" y2="3129.85" xlink:href="#linear-gradient-conference-1"/><linearGradient id="linear-gradient-8-conference-1" x1="197.25" y1="3138.37" x2="212.04" y2="3148.65" gradientTransform="translate(-31 3367.76) scale(1 -1)" xlink:href="#linear-gradient-conference-1"/><linearGradient id="linear-gradient-9-conference-1" x1="1477.91" y1="3113.18" x2="1494.57" y2="3130.66" gradientTransform="translate(1660.48 3335.28) rotate(-180)" xlink:href="#linear-gradient-conference-1"/><linearGradient id="linear-gradient-10-conference-1" x1="1481.48" y1="3105.89" x2="1496.27" y2="3116.18" gradientTransform="translate(1660.48 3335.28) rotate(-180)" xlink:href="#linear-gradient-conference-1"/><linearGradient id="linear-gradient-11-conference-1" x1="191.51" y1="3156.25" x2="204" y2="3060.95" gradientTransform="translate(-31 3367.76) scale(1 -1)" xlink:href="#linear-gradient-conference-1"/><linearGradient id="linear-gradient-12-conference-1" x1="248.64" y1="3087.75" x2="270.87" y2="3130.74" xlink:href="#linear-gradient-conference-1"/><linearGradient id="linear-gradient-13-conference-1" x1="200.31" y1="3154.12" x2="206.13" y2="3139.3" gradientTransform="translate(-31 3367.76) scale(1 -1)" xlink:href="#linear-gradient-conference-1"/><clipPath id="clippath_conference-1"><path class="cls-2_conference-1" d="M9.82,161.66c-4.83,36.84,16.48,65.6,18.22,101.4,1.38,28.57-9.71,56.03-15.87,83.95s-6.28,60.35,13.09,81.38c11.23,12.2,27.44,18.65,43.65,22.25,60.93,13.59,122.17-7.51,182.24-15.93,30.65-4.3,59.34-2.86,89.88,1.19,30.22,3.99,62.34,10.28,91.62-1.71,22.22-9.13,39.6-28.1,49.6-49.95,11.02-24.07,13.57-51.42,12.11-77.62-1.36-24.26-13.06-46.66-17.98-70.45-4.88-23.61-2.97-48.01-3.54-72.11-.56-24.1-4.05-49.27-18.02-68.93-20.49-28.85-59.2-39.25-94.55-37.52-40.14,1.94-77.92,19.22-117.98,17.34-41.74-1.92-82.03-18.82-124.17-14.94-32.71,3.02-64.16,19.44-84.55,45.21-12.84,16.34-21.05,35.84-23.77,56.45Z"/></clipPath></defs><g id="background_conference-1"><g id="background-2_conference-1"><path class="cls-4_conference-1 targetColor" d="M494.22,332.27c-1.19,17.32-4.79,34.47-12,50.22-10,21.86-27.38,40.87-49.6,49.96-29.27,12-61.39,5.71-91.61,1.71-30.55-4.03-59.24-5.47-89.88-1.19-60.07,8.43-121.3,29.52-182.24,15.94-16.2-3.61-32.41-10.05-43.65-22.25-19.37-21.03-19.26-53.46-13.09-81.39.97-4.36,2.04-8.68,3.17-13.02,6.16-23.48,13.89-46.82,12.7-70.93-1.73-35.78-23.03-64.53-18.19-101.38,2.71-20.6,10.91-40.1,23.75-56.43,20.4-25.77,51.84-42.21,84.56-45.24,42.13-3.87,82.42,13.04,124.14,14.96,40.08,1.86,77.85-15.41,117.98-17.37,35.34-1.72,74.05,8.67,94.54,37.52,13.96,19.65,17.46,44.82,18.01,68.92s-1.33,48.5,3.54,72.11c4.92,23.81,16.63,46.2,17.98,70.45.54,9.12.5,18.27-.12,27.39Z" style="fill: rgb(68, 40, 107);"/></g><path class="cls-23_conference-1 targetColor" d="M494.22,332.27c-1.19,17.32-4.79,34.47-12,50.22-10,21.86-27.38,40.87-49.6,49.96-29.27,12-61.39,5.71-91.61,1.71-30.55-4.03-59.24-5.47-89.88-1.19-60.07,8.43-121.3,29.52-182.24,15.94-16.2-3.61-32.41-10.05-43.65-22.25-19.37-21.03-19.26-53.46-13.09-81.39.97-4.36,2.04-8.68,3.17-13.02l478.89.02Z" style="fill: rgb(68, 40, 107);"/><path class="cls-3_conference-1" d="M494.22,332.27c-1.19,17.32-4.79,34.47-12,50.22-10,21.86-27.38,40.87-49.6,49.96-29.27,12-61.39,5.71-91.61,1.71-30.55-4.03-59.24-5.47-89.88-1.19-60.07,8.43-121.3,29.52-182.24,15.94-16.2-3.61-32.41-10.05-43.65-22.25-19.37-21.03-19.26-53.46-13.09-81.39.97-4.36,2.04-8.68,3.17-13.02l478.89.02Z"/><path class="cls-10_conference-1" d="M494.22,340.01c-1.19,16.21-4.79,32.26-12,47.01-10,20.46-27.38,38.24-49.6,46.77-29.27,11.23-61.39,5.34-91.61,1.59-30.55-3.77-59.24-5.12-89.88-1.1-60.07,7.89-121.3,27.64-182.24,14.92-16.2-3.38-32.41-9.41-43.65-20.83-19.37-19.69-19.26-50.05-13.09-76.19.97-4.07,2.04-8.12,3.17-12.18h478.89Z"/></g><g id="data_graphic_conference-1"><rect class="cls-4_conference-1 targetColor" x="86.91" y="86.94" width="333.3" height="245.35" style="fill: rgb(68, 40, 107);"/><rect class="cls-21_conference-1" x="96.46" y="97.01" width="316.03" height="227.56"/><rect class="cls-23_conference-1 targetColor" x="260.36" y="155.46" width="15.43" height="85.83" style="fill: rgb(68, 40, 107);"/><rect class="cls-23_conference-1 targetColor" x="286.81" y="195.55" width="15.43" height="45.75" style="fill: rgb(68, 40, 107);"/><rect class="cls-23_conference-1 targetColor" x="342.67" y="186.26" width="15.43" height="55.03" style="fill: rgb(68, 40, 107);"/><rect class="cls-23_conference-1 targetColor" x="314.74" y="164.8" width="15.43" height="76.49" style="fill: rgb(68, 40, 107);"/></g><g id="character_conference-1"><rect class="cls-23_conference-1 targetColor" x="147.17" y="256.25" width="47.04" height="86.21" style="fill: rgb(68, 40, 107);"/><rect class="cls-11_conference-1" x="147.17" y="256.25" width="47.04" height="86.21"/><rect class="cls-23_conference-1 targetColor" x="133.94" y="248.14" width="72.03" height="27.19" style="fill: rgb(68, 40, 107);"/><path class="cls-23_conference-1 targetColor" d="M165.36,208.67s-9.74,4.39-10.32,5.56,0,33.94,0,33.94h34.32l-1.98-34.55-10.02-4.15-12-.79Z" style="fill: rgb(68, 40, 107);"/><path class="cls-9_conference-1" d="M189.37,248.14h-34.32s-.58-32.78,0-33.95,10.32-5.53,10.32-5.53l12,.79,10.04,4.11.95,16.59,1.02,17.99Z"/><path class="cls-21_conference-1" d="M165.36,208.67l4.9,14,2.28,10.66s4.61-18.35,4.9-23.78l-12.08-.87Z"/><path class="cls-22_conference-1" d="M165.61,204s.7,3.69-.24,4.66c0,0,3.03,5.11,6.78,4.72,4.24-.45,4.76-3.29,5.22-3.9,0,0-.98.33-.94-3.9s-10.81-1.58-10.81-1.58Z"/><path class="cls-19_conference-1" d="M165.61,204s1.39,7.38,5.75,6.94c2.45-.15,4.52-1.9,5.07-4.29l-10.83-2.65Z"/><path class="cls-22_conference-1" d="M165.22,202.72c.26,1.18.72,2.3,1.36,3.33,1.79,2.62,5.86,3.42,8.56,1.69,1.5-.97,2.5-2.53,3.23-4.13,1.58-3.48,2.11-7.34,1.52-11.11-.23-1.44-.65-2.92-1.62-4.04-1.59-1.84-4.31-2.32-6.78-2.19-2.21.12-4.5.67-6.17,2.08-1.83,1.61-2.62,4.1-2.07,6.48.64,2.64,1.25,5.3,1.97,7.89Z"/><path class="cls-22_conference-1" d="M215.56,211.16c.16-.25.48-.53.71-.34.08.09.13.21.14.33.19,1.14.12,2.32-.22,3.43,1.18-2.36,2.58-4.6,4.17-6.7.28-.37.73-.79,1.14-.57-.14,1.74-.75,3.41-1.75,4.84.7-1.71,1.83-3.2,3.29-4.35.29,1.83-.64,3.61-1.55,5.23.7-1.25,1.59-2.39,2.63-3.38.4.57.07,1.33-.25,1.94l-1.73,3.25c.6-1.07,1.37-2.03,2.28-2.85.25.54-.06,1.15-.36,1.66l-3.15,5.29c-.45.84-1.01,1.62-1.66,2.32-.79.79-1.81,1.31-2.6,2.1-1.45,1.44-2.25,3.54-4.46,1.94-1.22-.89-.95-1.93-.44-3.17,1.46-3.61,1.85-7.61,3.83-10.98Z"/><path class="cls-22_conference-1" d="M163.32,195.77c-.48-.21-1.11-.22-1.44.18-.11.14-.19.31-.23.49-.25.98.1,2.03.6,2.91.13.25.3.47.51.66.43.28.93.42,1.44.4.11.02.23,0,.34-.03.09-.04.17-.1.23-.18.33-.41.47-.94.4-1.46-.12-1.15-.79-2.49-1.86-2.96Z"/><path class="cls-22_conference-1" d="M180.26,200.17c-.48.21-1.11.22-1.44-.18-.11-.15-.19-.31-.23-.49-.25-.98.1-2.02.6-2.91.13-.25.3-.47.51-.65.43-.28.93-.42,1.44-.4.11-.02.23,0,.34.03.09.04.17.1.23.18.33.41.47.94.4,1.46-.1,1.15-.77,2.49-1.86,2.97Z"/><path class="cls-20_conference-1" d="M161.66,191.34c-.11-.6-.11-1.22,0-1.83.12-.61.5-1.14,1.05-1.44.22-2.31,1.61-4.35,3.69-5.39,1.91-.94,4.15-.9,6.27-.69.85.07,1.69.21,2.51.43,1.92.56,3.57,1.8,5.48,2.38.57.17,1.22.34,1.51.86.19.45.19.95,0,1.4-.18.44-.3.91-.35,1.39.03.41.12.82.25,1.21.37,1.47.13,3.03-.65,4.33-.47.76-1.12,1.41-1.43,2.25-1.12-1.75-1.78-3.76-1.9-5.83-1.86.79-3.97.79-5.98.54-2.01-.25-3.97-.79-5.99-1.01-.25-.06-.51,0-.7.16-.11.19-.15.41-.11.62.03,1.17-.63,2.21-1.08,3.29-.4.98-.62,2.03-.65,3.1-.02-.46-.22-.9-.55-1.22-.25-.34-.44-.72-.55-1.13-.37-1.11-.64-2.26-.81-3.42Z"/><path class="cls-23_conference-1 targetColor" d="M217.91,226.92s-12.77,13.31-15.26,13.16c-.44-.07-.86-.23-1.24-.46-.21-.1-.4-.22-.64-.35-.75-.43-1.62-1.01-2.57-1.67-.3-.2-.63-.42-.94-.65l-.77-.55c-.63-.46-1.27-.92-1.92-1.42l-1.08-.79c-.06-.05-.13-.1-.19-.15-1.36-1.03-2.7-2.08-3.92-3.03-.37-.29-.7-.56-1.04-.82l-.95-16.59,16.07,13.32,6.9-6.67,7.56,6.67Z" style="fill: rgb(68, 40, 107);"/><path class="cls-15_conference-1" d="M217.91,226.92l-.03.04c-.65.67-12.8,13.27-15.23,13.12-.44-.07-.86-.23-1.24-.46-.21-.1-.4-.22-.64-.35-.75-.43-1.62-1.01-2.57-1.67-.3-.21-.62-.43-.94-.65l-.77-.55c-.63-.46-1.27-.92-1.92-1.42l-1.08-.79c-.06-.05-.13-.1-.19-.15-1.36-1.03-2.7-2.08-3.92-3.03-.37-.29-.7-.56-1.04-.82l-.25-4.29-.71-12.3,16.07,13.33,6.9-6.67,5.69,5.02,1.86,1.64Z"/><path class="cls-23_conference-1 targetColor" d="M155.05,214.22s-3.2,4.98-5.01,12.63c-1.81,7.66-5.77,21.28-5.77,21.28h10.77l.02-33.92Z" style="fill: rgb(68, 40, 107);"/><path class="cls-16_conference-1" d="M155.05,214.22s-3.2,4.98-5.01,12.63c-1.81,7.66-5.77,21.28-5.77,21.28h10.77l.02-33.92Z"/><path class="cls-19_conference-1" d="M162.4,198.35c.14.36.37.67.67.91.27.22.65.25.94.06.05-.04.09-.11.1-.17.02-.1,0-.2-.04-.28l-.07-.18c-.02-.05-.04-.1-.07-.15-.13-.16-.4-.14-.56-.24s-.26-.36-.36-.54c-.07-.17-.24-.29-.42-.29-.18.03-.31.18-.32.37,0,.18.04.37.13.53Z"/><path class="cls-19_conference-1" d="M181.38,197.98c-.14.36-.37.67-.67.91-.27.22-.65.25-.94.06-.05-.04-.09-.09-.12-.15-.02-.1,0-.19.04-.28l.07-.18c.02-.05.04-.1.07-.15.13-.16.4-.14.56-.24s.26-.36.36-.54c.07-.17.24-.29.42-.29.18.03.31.18.32.37,0,.18-.03.35-.12.5Z"/><path class="cls-14_conference-1" d="M165.36,208.67l-2.29,1.06,1.15,10.58,6.04,2.36s-2.54-7.78-4.9-14Z"/><polygon class="cls-12_conference-1" points="166.14 221.05 165.36 225.11 172.71 233.32 170.26 222.66 166.14 221.05"/><path class="cls-13_conference-1" d="M177.44,209.54l2.29,1.06,1.31,9.71-6.04,2.36s2.37-9.8,2.45-13.12Z"/><polygon class="cls-8_conference-1" points="179.11 221.05 179.89 225.11 172.55 233.32 174.99 222.66 179.11 221.05"/><polygon class="cls-5_conference-1" points="182.08 248.02 159.42 243.97 155.05 223.64 155.05 232.69 148.52 248.14 182.08 248.02"/><path class="cls-6_conference-1" d="M217.91,226.92l-.03.04c-.65.67-12.8,13.27-15.23,13.12-.44-.07-.86-.23-1.24-.46-.21-.1-.4-.22-.64-.35-.75-.43-1.62-1.01-2.57-1.67-.3-.21-.62-.43-.94-.65l-.77-.55c-.63-.46-1.27-.92-1.92-1.42l-1.08-.79c-.06-.05-.13-.1-.19-.15-1.36-1.03-2.7-2.08-3.92-3.03-.37-.29-.7-.56-1.04-.82l-.25-4.29s11.97,10.23,14.55,10.69,13.39-11.28,13.39-11.28l1.88,1.62Z"/><path class="cls-23_conference-1 targetColor" d="M152.15,248.2c-.02-.27-2.07-27.57,17.67-31.44l.25,1.28c-18.6,3.65-16.65,29.79-16.63,30.05l-1.3.11Z" style="fill: rgb(68, 40, 107);"/><circle class="cls-23_conference-1 targetColor" cx="170.68" cy="217.13" r="1.69" style="fill: rgb(68, 40, 107);"/><circle class="cls-7_conference-1" cx="170.68" cy="217.13" r="1.69"/></g><g id="audiences_conference-1"><g class="cls-1_conference-1"><path class="cls-23_conference-1 targetColor" d="M-5.77,354.48s-8.45.24-10.04,3.67-1.59,27.01-1.59,27.01H18.86s.83-24.85-.87-27.13-23.76-3.55-23.76-3.55Z" style="fill: rgb(68, 40, 107);"/><path class="cls-18_conference-1" d="M4.9,320.4c-1.73-.52-3.59-.35-5.19.48-.86.46-1.19,1.35-1.92,1.83-.6.4-1.61-.07-2.1.65-.58.84-.96,2.23-1.42,3.17-.58,1.22-1.11,2.46-1.59,3.73-.95,2.54-1.69,5.14-2.23,7.79-1.04,5.27-1.46,10.65-1.23,16.03.12,3.22.42,6.5,1.65,9.48,1.33,3.26,7.52,2.32,10.24,2.28,4.76-.08,9.51-.32,14.25-.73,1.04-10.46.83-21.01-.63-31.42-.32-2.31-.73-4.67-1.85-6.72-1.54-2.77-4.64-5.66-7.98-6.57Z"/><path class="cls-21_conference-1" d="M28.29,329.92s-8.45.24-10.05,3.67c-1.6,3.43-1.59,26.09-1.59,26.09h36.26s.83-23.93-.87-26.21c-1.7-2.29-23.76-3.55-23.76-3.55Z"/><path class="cls-23_conference-1 targetColor" d="M33.06,412.23s1.59-53.08,2.82-54.89,11.51-5.54,24.28-4.63c12.78.9,16.6,4.63,16.6,4.63l3.27,54.89h-46.98Z" style="fill: rgb(68, 40, 107);"/><path class="cls-21_conference-1" d="M42.76,384.21s6.42,2.92,7.14,5.12c.72,2.2,2.54,22.9,2.54,22.9H2.33s2.75-23.81,4.76-25.84c2.01-2.04,25.02-4.71,35.67-2.18Z"/><path class="cls-18_conference-1" d="M19.83,349.76c-.4.06-.83,0-1.23.06-.99.13-1.82.81-2.15,1.75-.08.33-.18.65-.32.95-.23.3-.47.57-.75.83-.54.66-.64,1.58-.25,2.34-.96.54-1.58,1.52-1.64,2.62,0,.4.05.84,0,1.25-.12,1.31-1.19,2.3-1.74,3.49-.98,2.35.02,5.06,2.3,6.19-1.53,1.52-1.58,3.97-.13,5.56-1.12.91-2.28,1.88-2.83,3.21s-.25,3.13,1.04,3.79c-1.2,1.32-1.1,3.37.23,4.57.61.55,1.41.85,2.24.84-.64,2.15.59,4.41,2.74,5.05.61.18,1.24.22,1.87.11-.13,1.78,0,3.57.4,5.31,2.58.59,5.28.4,7.75-.55,1.02.73,2.09,1.47,3.31,1.73s2.68-.07,3.36-1.12c.4-.59.55-1.4,1.19-1.69.28-.1.57-.14.87-.12h4.5c.33.04.66-.04.94-.21.21-.2.35-.47.4-.75.33-1.21.38-2.49.13-3.72,1.51-.61,2.24-2.33,1.63-3.84,0-.01-.01-.02-.02-.04-.22-.36-.41-.75-.55-1.15-.16-.67.15-1.35.28-2.02.16-.94-.05-1.92-.58-2.71-.24-.27-.41-.6-.51-.94-.07-.46.22-.88.45-1.29.82-1.47.99-3.22.47-4.82-.19-.56-.46-1.13-.4-1.71.07-.35.18-.7.33-1.02.62-1.61.51-3.4-.29-4.93-.26-.38-.44-.81-.55-1.25-.02-.38.02-.77.13-1.14.46-2.05.52-4.18.15-6.25-.21-1.16-.64-2.43-1.7-2.97-.23-.08-.44-.22-.6-.4-.12-.23-.17-.49-.14-.75-.14-1.91-1.8-3.35-3.71-3.2-.04,0-.08,0-.12.01-.61-2.44-3.83-3.79-6-2.52-.34-1.29-1.45-2.24-2.78-2.38-1.63-.13-2.48,1.21-3.65,1.84s-2.77,1.81-4.08,2Z"/><path class="cls-21_conference-1" d="M49.53,350.81c.17-.16.39-.25.62-.27,1.31-.19,2.61.21,3.9.47,3.02.59,6.14.37,9.22.2.08-.01.16,0,.23.03.08.04.15.12.18.21.2.51.09,1.09-.28,1.49-.37.39-.82.69-1.33.87-.75.32-1.54.55-2.35.7-1,.17-2.02.26-3.04.26-1.88.04-3.83-.05-5.6-.73-.52-.15-.95-.49-1.22-.95-.3-.55-.85-1.73-.35-2.28Z"/><path class="cls-18_conference-1" d="M45.01,326.04c-.4.48-.74,1-1.01,1.56-.92,1.88-1.13,4.04-1.16,6.13-.08,1.81.21,3.63.85,5.33.71,1.74,1.9,3.06,2.89,4.65.85,1.36,1.47,2.86,2.38,4.17,1.67,2.43,4.29,4.04,7.22,4.42,2.93.34,5.84-.79,7.78-3.02.92-1.11,1.54-2.44,2.28-3.68.73-1.07,1.4-2.18,2.01-3.32.85-1.81,1.08-3.83,1.23-5.82.21-1.94.16-3.89-.12-5.82-.29-1.94-1.18-3.74-2.54-5.16-.88-.79-1.86-1.47-2.91-2.03-1.75-1.02-3.53-2.06-5.5-2.56s-4.17-.43-5.87.67c-.73.47-1.37,1.08-2.12,1.53s-1.64.62-2.5.92c-1.14.39-2.15,1.09-2.92,2.02Z"/><path class="cls-23_conference-1 targetColor" d="M80.45,329.92s-8.45.24-10.04,3.67-1.59,26.09-1.59,26.09h36.26s.83-23.93-.87-26.21-23.76-3.55-23.76-3.55Z" style="fill: rgb(68, 40, 107);"/><path class="cls-18_conference-1" d="M104.19,317.6c0-4.28-.58-8.65-2.53-12.46-3.95-7.72-14.2-12.75-21.27-5.83-3.15,3.09-4.54,7.76-3.97,12.13.47,3.62,2.18,7.09,1.96,10.75-.2,3.33-1.98,6.31-3.44,9.3s-2.69,6.41-1.73,9.6c.84,2.78,3.21,4.84,5.86,5.97,2.65,1.13,5.56,1.46,8.43,1.69,2.94.24,6.02.4,8.69-.86,4.64-2.17,4.15-8.01,5.23-12.28,1.51-5.91,2.76-11.9,2.76-18.01Z"/><path class="cls-18_conference-1" d="M85.23,412.23s1.59-53.08,2.83-54.89,11.51-5.54,24.28-4.63c12.77.9,16.6,4.63,16.6,4.63l3.28,54.89h-46.99Z"/><path class="cls-21_conference-1" d="M94.93,384.21s6.42,2.92,7.14,5.12,2.53,51.24,2.53,51.24h-50.11s2.76-52.16,4.76-54.18,25.02-4.71,35.67-2.18Z"/><path class="cls-20_conference-1" d="M72,349.76c-.4.06-.83,0-1.24.06-.99.14-1.81.81-2.15,1.75-.07.33-.18.65-.32.95-.22.3-.47.57-.75.83-.54.66-.64,1.58-.25,2.34-.96.53-1.58,1.52-1.63,2.62,0,.4.04.84,0,1.25-.12,1.31-1.19,2.3-1.74,3.49-.99,2.35.02,5.06,2.29,6.19-1.53,1.52-1.58,3.97-.13,5.56-1.12.91-2.28,1.88-2.83,3.21s-.24,3.13,1.04,3.79c-1.2,1.32-1.11,3.36.21,4.56.61.56,1.42.86,2.25.84-.64,2.15.59,4.41,2.74,5.05.61.18,1.24.22,1.87.11-.13,1.78,0,3.57.4,5.31,2.58.59,5.28.4,7.75-.55,1.03.73,2.09,1.47,3.32,1.73s2.67-.07,3.36-1.12c.4-.59.55-1.4,1.19-1.69.28-.1.57-.14.86-.12h4.5c.33.04.66-.04.95-.21.21-.2.35-.47.4-.75.33-1.21.38-2.49.13-3.72,1.51-.61,2.24-2.33,1.63-3.84,0-.01-.01-.02-.02-.04-.22-.36-.4-.75-.55-1.15-.16-.67.15-1.35.27-2.02.17-.94-.04-1.92-.58-2.71-.24-.27-.42-.59-.51-.94-.07-.46.22-.88.45-1.29.82-1.47.99-3.22.47-4.82-.19-.56-.46-1.13-.4-1.71.07-.35.18-.7.33-1.02.62-1.61.51-3.4-.29-4.93-.25-.38-.44-.81-.55-1.25-.02-.38.02-.77.13-1.14.46-2.05.52-4.18.15-6.25-.21-1.16-.64-2.43-1.69-2.97-.23-.08-.44-.22-.61-.4-.12-.23-.16-.49-.14-.75-.14-1.91-1.79-3.34-3.7-3.21-.04,0-.09,0-.13.01-.62-2.44-3.84-3.79-6.01-2.52-.34-1.29-1.45-2.24-2.78-2.38-1.63-.13-2.47,1.21-3.65,1.84s-2.76,1.81-4.07,2Z"/><path class="cls-21_conference-1" d="M101.71,350.81c.17-.16.39-.25.62-.27,1.3-.19,2.61.21,3.9.47,3.02.59,6.14.37,9.21.2.08-.01.16,0,.23.03.09.04.15.12.19.21.2.51.09,1.09-.28,1.49-.37.39-.83.69-1.33.87-.75.32-1.54.55-2.34.7-1,.17-2.02.26-3.04.26-1.88.04-3.83-.05-5.6-.73-.51-.15-.95-.49-1.22-.95-.29-.55-.85-1.73-.35-2.28Z"/><path class="cls-20_conference-1" d="M97.18,326.04c-.4.48-.74,1-1.01,1.56-.92,1.88-1.14,4.04-1.16,6.13-.08,1.81.21,3.63.85,5.33.71,1.74,1.9,3.06,2.89,4.65.85,1.36,1.47,2.86,2.38,4.17,1.66,2.43,4.28,4.03,7.2,4.42,2.93.34,5.84-.79,7.78-3.02.92-1.11,1.54-2.44,2.29-3.68.72-1.07,1.38-2.18,1.98-3.32.85-1.81,1.08-3.83,1.23-5.82.21-1.94.17-3.89-.12-5.82-.29-1.94-1.18-3.74-2.54-5.16-.88-.79-1.86-1.47-2.91-2.03-1.75-1.02-3.53-2.06-5.49-2.56s-4.17-.43-5.87.67c-.73.47-1.37,1.08-2.11,1.53s-1.64.62-2.5.92c-1.13.4-2.13,1.1-2.89,2.02Z"/><path class="cls-23_conference-1 targetColor" d="M122.35,381.55s-8.45.24-10.04,3.67-1.59,27.01-1.59,27.01h36.25s.83-24.85-.87-27.13-23.75-3.55-23.75-3.55Z" style="fill: rgb(68, 40, 107);"/><path class="cls-18_conference-1" d="M133.01,347.47c-1.73-.52-3.59-.35-5.19.48-.86.46-1.21,1.34-1.92,1.83-.6.4-1.61-.07-2.1.65-.58.84-.96,2.23-1.42,3.17-.58,1.22-1.11,2.46-1.59,3.73-.95,2.54-1.69,5.14-2.23,7.79-1.04,5.27-1.46,10.65-1.23,16.02.12,3.23.42,6.5,1.65,9.48,1.33,3.26,7.52,2.32,10.24,2.28,4.76-.08,9.51-.32,14.25-.73,1.04-10.46.83-21.01-.63-31.42-.32-2.31-.73-4.67-1.85-6.72-1.53-2.77-4.65-5.66-7.98-6.57Z"/><path class="cls-23_conference-1 targetColor" d="M123.58,380.09s-8.45.25-10.05,3.67c-1.6,3.43-1.59,27.01-1.59,27.01h36.25s.83-24.85-.87-27.13-23.75-3.55-23.75-3.55Z" style="fill: rgb(68, 40, 107);"/><path class="cls-18_conference-1" d="M134.24,346.01c-1.73-.52-3.59-.35-5.19.48-.86.46-1.19,1.34-1.92,1.83-.59.4-1.61-.06-2.1.65-.57.84-.96,2.23-1.42,3.17-.58,1.22-1.11,2.46-1.59,3.73-.94,2.54-1.69,5.14-2.23,7.79-1.04,5.27-1.46,10.65-1.23,16.03.11,3.22.42,6.5,1.64,9.48,1.34,3.26,7.52,2.32,10.24,2.28,4.76-.07,9.51-.32,14.25-.73,1.04-10.46.83-21.01-.62-31.42-.33-2.32-.73-4.67-1.85-6.72-1.52-2.77-4.63-5.66-7.98-6.57Z"/><path class="cls-21_conference-1" d="M157.63,355.54s-8.45.25-10.04,3.67-1.59,26.09-1.59,26.09h36.26s.83-23.93-.87-26.21-23.76-3.55-23.76-3.55Z"/><path class="cls-20_conference-1" d="M164.07,322.41c-2.14.9-3.53,2.98-4.62,5.03-4.71,8.86-6.23,19.15-5.87,29.18.11,3.23.42,6.5,1.64,9.48.17.53.49,1,.92,1.35.52.28,1.1.41,1.69.37,6.41.14,12.82-.07,19.2-.62,2.15-7.86,4.31-15.83,4.36-23.98.02-4.28-.58-8.65-2.53-12.46-1.95-3.81-5.41-7.01-9.6-7.92-2.73-.6-6.11.13-7.28,2.68"/><path class="cls-18_conference-1" d="M162.41,437.85s1.59-53.08,2.83-54.89c1.24-1.81,11.51-5.53,24.28-4.63,12.77.9,16.6,4.63,16.6,4.63l3.28,54.89h-46.99Z"/><path class="cls-18_conference-1" d="M172.11,409.82s6.42,2.92,7.14,5.12c.72,2.2,2.53,22.9,2.53,22.9h-50.11s2.78-23.81,4.76-25.84,25.02-4.73,35.67-2.18Z"/><path class="cls-20_conference-1" d="M149.18,375.38c-.4.06-.83,0-1.24.06-.99.13-1.81.81-2.14,1.75-.08.33-.18.65-.33.95-.22.3-.47.57-.75.83-.54.66-.64,1.58-.25,2.34-.96.54-1.57,1.52-1.63,2.62-.02.42.04.84,0,1.26-.12,1.3-1.19,2.3-1.74,3.48-.99,2.35.02,5.06,2.3,6.19-1.53,1.52-1.59,3.97-.13,5.56-1.12.91-2.28,1.88-2.83,3.21s-.24,3.14,1.04,3.79c-1.2,1.32-1.1,3.37.22,4.57.61.56,1.42.86,2.25.84-.64,2.15.58,4.41,2.73,5.05.61.18,1.25.22,1.87.11-.13,1.78,0,3.57.4,5.31,2.58.59,5.28.4,7.75-.54,1.03.72,2.09,1.46,3.32,1.73s2.67-.07,3.36-1.12c.4-.59.55-1.4,1.19-1.69.28-.1.57-.14.86-.12h4.5c.33.04.66-.04.95-.21.21-.2.35-.46.4-.75.33-1.21.38-2.49.13-3.73,1.51-.61,2.24-2.33,1.63-3.84,0-.01,0-.02-.01-.03-.22-.36-.4-.74-.55-1.14-.16-.67.15-1.35.27-2.02.17-.94-.04-1.92-.58-2.71-.24-.27-.41-.59-.51-.94-.07-.46.22-.89.45-1.29.82-1.47.99-3.22.47-4.82-.19-.56-.46-1.13-.4-1.72.07-.35.18-.7.33-1.02.63-1.6.54-3.4-.25-4.93-.25-.38-.44-.81-.54-1.26-.02-.38.02-.77.13-1.14.46-2.05.52-4.17.15-6.25-.2-1.17-.64-2.44-1.69-2.97-.23-.08-.44-.22-.6-.4-.12-.23-.17-.49-.14-.75-.15-1.91-1.83-3.34-3.74-3.18-.03,0-.06,0-.09,0-.62-2.44-3.84-3.79-6.01-2.52-.34-1.29-1.45-2.24-2.78-2.38-1.63-.13-2.47,1.21-3.65,1.84s-2.79,1.79-4.1,1.98Z"/><path class="cls-21_conference-1" d="M178.88,376.42c.17-.16.39-.25.62-.26,1.31-.19,2.61.21,3.9.46,3.02.6,6.14.37,9.21.21.08-.01.16,0,.23.02.08.05.15.12.19.21.2.51.09,1.09-.28,1.49-.37.39-.83.69-1.33.87-.75.32-1.54.55-2.34.7-1,.17-2.02.26-3.04.26-1.88.04-3.83-.04-5.6-.73-.51-.15-.95-.49-1.22-.95-.3-.55-.84-1.72-.35-2.28Z"/><path class="cls-18_conference-1" d="M174.35,351.66c-.4.48-.74,1-1.01,1.56-.92,1.89-1.13,4.04-1.16,6.13-.08,1.81.21,3.63.85,5.33.71,1.74,1.9,3.06,2.89,4.65.85,1.36,1.47,2.86,2.38,4.18,1.67,2.42,4.28,4.02,7.19,4.4,2.93.34,5.84-.79,7.78-3.02.92-1.11,1.54-2.44,2.29-3.68.73-1.07,1.4-2.18,2.01-3.32.85-1.81,1.08-3.83,1.23-5.82.21-1.94.16-3.89-.12-5.82-.29-1.94-1.18-3.74-2.54-5.16-.88-.79-1.86-1.48-2.91-2.03-1.75-1.02-3.53-2.06-5.49-2.56s-4.17-.43-5.87.67c-.73.47-1.37,1.08-2.12,1.52s-1.64.62-2.5.92c-1.13.4-2.14,1.11-2.9,2.04Z"/><path class="cls-23_conference-1 targetColor" d="M209.8,355.54s-8.45.25-10.05,3.67c-1.6,3.43-1.59,26.09-1.59,26.09h36.26s.83-23.93-.87-26.21-23.76-3.55-23.76-3.55Z" style="fill: rgb(68, 40, 107);"/><path class="cls-18_conference-1" d="M216.24,322.41c-2.14.9-3.53,2.98-4.62,5.03-4.71,8.86-6.23,19.15-5.88,29.18.11,3.23.42,6.5,1.64,9.48.17.53.49,1,.92,1.35.52.28,1.1.41,1.69.37,6.41.14,12.82-.07,19.21-.62,2.14-7.86,4.31-15.83,4.36-23.98.02-4.28-.58-8.65-2.52-12.46s-5.43-7.01-9.6-7.92c-2.73-.6-6.11.13-7.28,2.68"/><path class="cls-23_conference-1 targetColor" d="M420.58,355.54s-8.45.25-10.05,3.67-1.59,56.43-1.59,56.43h36.26s.83-54.27-.87-56.55-23.76-3.55-23.76-3.55Z" style="fill: rgb(68, 40, 107);"/><path class="cls-18_conference-1" d="M427.02,322.41c-2.14.9-3.53,2.98-4.62,5.03-4.71,8.86-6.23,19.15-5.88,29.18.12,3.23.42,6.5,1.65,9.48.17.53.49,1,.92,1.35.52.28,1.1.41,1.69.37,6.41.14,12.82-.07,19.21-.62,2.15-7.86,4.31-15.83,4.36-23.98,0-4.28-.58-8.65-2.53-12.46-1.95-3.81-5.4-7-9.58-7.92-2.73-.6-6.11.13-7.28,2.68"/><path class="cls-18_conference-1" d="M356.1,414.76s1.58-53.08,2.84-54.9,11.51-5.54,24.28-4.63,16.59,4.63,16.59,4.63l3.27,54.89-46.99.02Z"/><path class="cls-18_conference-1" d="M365.8,386.73s6.42,2.92,7.14,5.12,2.53,22.9,2.53,22.9h-50.11s2.75-23.81,4.76-25.84c2.01-2.03,25.02-4.73,35.67-2.18Z"/><path class="cls-20_conference-1" d="M342.87,352.29c-.4.06-.83,0-1.23.06-.99.13-1.82.81-2.15,1.75-.08.33-.18.65-.32.95-.23.3-.47.57-.75.83-.54.66-.64,1.58-.25,2.34-.96.54-1.57,1.52-1.64,2.62,0,.4.05.84,0,1.26-.12,1.3-1.19,2.3-1.74,3.48-.98,2.35.04,5.06,2.32,6.19-1.53,1.52-1.58,3.97-.13,5.56-1.12.91-2.28,1.88-2.83,3.21s-.25,3.14,1.04,3.79c-1.2,1.32-1.1,3.37.22,4.57.61.56,1.41.86,2.24.84-.64,2.15.59,4.41,2.74,5.05.61.18,1.24.22,1.87.11-.13,1.78,0,3.57.4,5.31,2.58.59,5.28.4,7.75-.55,1.02.73,2.09,1.47,3.31,1.73,1.23.27,2.68-.07,3.36-1.12.4-.59.55-1.4,1.19-1.69.28-.1.57-.14.87-.12h4.5c.33.04.66-.04.94-.21.21-.2.35-.46.4-.75.33-1.22.38-2.49.13-3.73,1.51-.61,2.24-2.33,1.63-3.84,0-.01-.01-.02-.02-.04-.22-.36-.41-.74-.55-1.14-.16-.67.15-1.35.28-2.02.16-.94-.05-1.92-.58-2.71-.24-.27-.41-.59-.51-.94-.07-.46.22-.89.45-1.29.82-1.47.99-3.22.47-4.82-.19-.56-.46-1.13-.4-1.72.07-.35.18-.7.33-1.02.62-1.61.51-3.4-.29-4.92-.25-.38-.44-.81-.55-1.26-.02-.38.02-.77.13-1.14.46-2.05.51-4.17.15-6.25-.21-1.17-.64-2.44-1.7-2.97-.23-.08-.44-.22-.6-.4-.12-.23-.17-.49-.14-.75-.15-1.91-1.83-3.34-3.74-3.18-.03,0-.06,0-.09,0-.61-2.44-3.83-3.79-6-2.52-.34-1.29-1.45-2.24-2.78-2.38-1.63-.13-2.47,1.21-3.65,1.84s-2.79,1.79-4.1,1.98Z"/><path class="cls-21_conference-1" d="M372.58,353.33c.17-.16.39-.25.62-.26,1.3-.19,2.61.21,3.9.46,3.02.6,6.14.37,9.22.21.08-.01.16,0,.23.02.08.05.15.12.18.21.2.51.09,1.09-.27,1.49-.37.39-.83.69-1.33.87-.75.32-1.54.55-2.35.7-1,.17-2.02.26-3.04.26-1.88.04-3.83-.04-5.6-.73-.52-.14-.95-.49-1.22-.95-.3-.55-.85-1.71-.35-2.28Z"/><path class="cls-20_conference-1" d="M368.05,328.57c-.4.48-.74,1-1.01,1.56-.92,1.88-1.13,4.04-1.16,6.13-.08,1.82.21,3.63.85,5.33.72,1.74,1.9,3.06,2.89,4.65.85,1.36,1.48,2.86,2.38,4.18,1.66,2.42,4.28,4.02,7.19,4.4,2.93.34,5.84-.79,7.78-3.02.92-1.11,1.54-2.44,2.28-3.68.67-1.11,1.46-2.15,2.01-3.32.85-1.81,1.08-3.83,1.23-5.82.21-1.94.17-3.89-.12-5.82-.29-1.94-1.18-3.74-2.54-5.16-.88-.79-1.86-1.48-2.91-2.03-1.75-1.02-3.53-2.06-5.5-2.56s-4.17-.43-5.87.67c-.73.47-1.37,1.08-2.12,1.53s-1.64.62-2.5.92c-1.13.4-2.13,1.1-2.9,2.03Z"/><path class="cls-23_conference-1 targetColor" d="M472.75,355.54s-8.45.25-10.04,3.67-1.59,56.74-1.59,56.74l36.26-30.63s.83-23.93-.87-26.21c-1.7-2.29-23.76-3.57-23.76-3.57Z" style="fill: rgb(68, 40, 107);"/><path class="cls-18_conference-1" d="M479.18,322.41c-2.14.9-3.53,2.98-4.62,5.03-4.71,8.86-6.23,19.15-5.87,29.18.11,3.23.42,6.5,1.64,9.48.17.53.49,1,.92,1.35.52.28,1.1.41,1.69.37,6.41.14,12.82-.07,19.2-.62,2.15-7.86,4.31-15.83,4.36-23.98,0-4.28-.58-8.65-2.53-12.46-1.95-3.81-5.4-7-9.58-7.92-2.73-.6-6.11.13-7.28,2.68"/><path class="cls-18_conference-1" d="M214.58,437.85s1.59-53.08,2.83-54.89,11.51-5.53,24.28-4.63c12.78.9,16.6,4.63,16.6,4.63l3.27,54.89h-46.99Z"/><path class="cls-18_conference-1" d="M224.28,409.82s6.42,2.92,7.14,5.12c.72,2.2,2.53,22.9,2.53,22.9h-50.11s2.78-23.81,4.76-25.84,25.03-4.73,35.67-2.18Z"/><path class="cls-20_conference-1" d="M201.35,375.38c-.4.06-.83,0-1.23.06-.99.13-1.82.81-2.15,1.75-.08.33-.18.65-.33.95-.22.3-.47.57-.74.83-.54.66-.64,1.58-.25,2.34-.96.53-1.58,1.52-1.64,2.62,0,.42.05.84,0,1.26-.12,1.3-1.19,2.3-1.74,3.48-.99,2.35.02,5.06,2.3,6.19-1.53,1.52-1.58,3.97-.13,5.56-1.12.91-2.28,1.88-2.83,3.21s-.25,3.14,1.04,3.79c-1.2,1.32-1.1,3.37.22,4.57.61.56,1.42.86,2.25.84-.64,2.15.59,4.41,2.74,5.05.6.18,1.24.22,1.86.11-.13,1.78,0,3.57.4,5.31,2.58.59,5.28.4,7.75-.54,1.02.72,2.09,1.46,3.31,1.73s2.67-.07,3.36-1.12c.4-.59.55-1.4,1.19-1.69.28-.1.57-.14.87-.12h4.5c.33.04.66-.04.94-.21.21-.2.35-.46.4-.75.33-1.21.38-2.49.13-3.73,1.51-.61,2.24-2.33,1.63-3.84,0-.01-.01-.02-.02-.04-.21-.37-.39-.75-.52-1.15-.16-.67.15-1.35.27-2.02.17-.94-.04-1.92-.58-2.71-.24-.27-.41-.59-.51-.94-.07-.46.22-.89.45-1.29.82-1.47.99-3.22.47-4.82-.19-.56-.46-1.13-.4-1.72.07-.35.18-.7.33-1.02.62-1.6.52-3.4-.28-4.92-.26-.38-.44-.81-.55-1.26-.02-.38.02-.77.13-1.14.46-2.05.52-4.17.15-6.25-.21-1.17-.64-2.44-1.7-2.97-.23-.08-.44-.22-.6-.4-.12-.23-.17-.49-.14-.75-.15-1.91-1.83-3.34-3.74-3.18-.03,0-.06,0-.09,0-.61-2.44-3.84-3.79-6.01-2.52-.34-1.29-1.45-2.24-2.78-2.38-1.63-.13-2.48,1.21-3.65,1.84s-2.8,1.79-4.11,1.98Z"/><path class="cls-21_conference-1" d="M231.05,376.42c.17-.16.39-.25.62-.26,1.31-.19,2.61.21,3.9.46,3.02.6,6.14.37,9.21.21.08,0,.16,0,.24.02.08.05.15.12.18.21.2.51.09,1.09-.28,1.49-.37.39-.82.69-1.33.87-.75.32-1.54.55-2.35.7-1,.17-2.02.26-3.04.26-1.88.04-3.83-.04-5.6-.73-.52-.14-.95-.48-1.22-.95-.3-.55-.85-1.72-.35-2.28Z"/><path class="cls-20_conference-1" d="M226.52,351.66c-.4.48-.74,1-1.01,1.56-.92,1.89-1.13,4.04-1.16,6.13-.08,1.82.22,3.63.87,5.33.71,1.74,1.9,3.06,2.89,4.65.85,1.36,1.47,2.86,2.38,4.18,1.67,2.42,4.28,4.02,7.19,4.4,2.93.34,5.84-.79,7.77-3.02.92-1.11,1.54-2.44,2.29-3.68.67-1.11,1.46-2.15,2.01-3.32.85-1.81,1.08-3.83,1.23-5.82.21-1.94.16-3.89-.12-5.82-.29-1.94-1.18-3.74-2.54-5.16-.88-.79-1.86-1.48-2.91-2.03-1.75-1.02-3.53-2.06-5.5-2.56s-4.17-.43-5.87.67c-.73.47-1.37,1.08-2.12,1.52s-1.64.62-2.5.92c-1.14.4-2.15,1.1-2.92,2.04Z"/><path class="cls-23_conference-1 targetColor" d="M251.69,407.16s-8.45.25-10.05,3.67-1.59,27.01-1.59,27.01h36.26s.83-24.85-.87-27.13-23.76-3.55-23.76-3.55Z" style="fill: rgb(68, 40, 107);"/><path class="cls-18_conference-1" d="M262.36,373.08c-1.73-.52-3.59-.35-5.19.48-.86.46-1.19,1.34-1.92,1.83-.59.4-1.61-.06-2.1.65-.57.84-.96,2.23-1.42,3.17-.58,1.22-1.11,2.46-1.59,3.73-.94,2.54-1.69,5.14-2.23,7.79-1.04,5.27-1.46,10.65-1.23,16.03.11,3.22.42,6.5,1.64,9.48,1.34,3.26,7.52,2.32,10.24,2.28,4.76-.07,9.51-.32,14.25-.73,1.04-10.46.83-21.01-.62-31.42-.33-2.32-.73-4.67-1.85-6.72-1.52-2.77-4.64-5.66-7.98-6.57Z"/><path class="cls-23_conference-1 targetColor" d="M123.58,470.33s-8.45.25-10.05,3.67c-1.6,3.43-1.59,27.01-1.59,27.01h36.25s.83-24.85-.87-27.13-23.75-3.55-23.75-3.55Z" style="fill: rgb(68, 40, 107);"/><path class="cls-18_conference-1" d="M134.24,436.25c-1.73-.52-3.59-.35-5.19.48-.86.46-1.19,1.35-1.92,1.83-.59.4-1.61-.07-2.1.65-.57.84-.96,2.23-1.42,3.17-.58,1.22-1.11,2.46-1.59,3.73-.94,2.54-1.69,5.14-2.23,7.79-1.04,5.27-1.46,10.65-1.23,16.03.11,3.22.42,6.5,1.64,9.48,1.34,3.26,7.52,2.32,10.24,2.28,4.76-.08,9.51-.32,14.25-.73,1.04-10.46.83-21.01-.62-31.43-.33-2.32-.73-4.67-1.85-6.72-1.52-2.76-4.63-5.65-7.98-6.56Z"/><path class="cls-23_conference-1 targetColor" d="M157.63,445.77s-8.45.25-10.04,3.67-1.59,26.09-1.59,26.09h36.26s.83-23.93-.87-26.21-23.76-3.55-23.76-3.55Z" style="fill: rgb(68, 40, 107);"/><path class="cls-18_conference-1" d="M177.03,457.44c1.07-3.92,2.96-8.51,3.01-12.59.04-3.57,2.33-5.92,3.57-9.18.97-2.56.93-5.37.88-8.1s-.13-5.7-1.48-8.13c-.83-1.5-2.08-2.71-3.33-3.88-1.51-1.42-3.07-2.84-4.96-3.7s-4.16-1.11-6-.16c-.63.37-1.23.77-1.81,1.21-2.32,1.59-5.86,2.33-7.46,4.73-1.8,2.7-2.86,6.35-3.73,9.42-1.81,6.42-2.38,13.15-2.15,19.81.11,3.23.42,6.5,1.64,9.48.17.53.49,1,.92,1.35.52.28,1.1.41,1.69.37,6.4.14,12.81-.07,19.19-.62Z"/><path class="cls-18_conference-1" d="M162.41,528.1s1.59-53.08,2.83-54.89,11.51-5.56,24.28-4.63,16.6,4.63,16.6,4.63l3.28,54.89h-46.99Z"/><path class="cls-18_conference-1" d="M172.11,500.06s6.42,2.92,7.14,5.12c.72,2.2,2.53,22.9,2.53,22.9h-50.11s2.78-23.81,4.76-25.84,25.02-4.72,35.67-2.18Z"/><path class="cls-20_conference-1" d="M149.18,465.61c-.4.06-.83,0-1.24.06-.99.13-1.81.81-2.14,1.75-.08.33-.18.65-.33.95-.22.3-.47.57-.75.83-.54.66-.64,1.58-.25,2.34-.96.54-1.57,1.52-1.63,2.62-.02.4.04.84,0,1.25-.12,1.31-1.19,2.3-1.74,3.49-.99,2.35.02,5.06,2.3,6.19-1.53,1.52-1.59,3.97-.13,5.56-1.12.91-2.28,1.88-2.83,3.21s-.24,3.13,1.04,3.79c-1.2,1.32-1.1,3.37.22,4.57.61.56,1.42.86,2.25.84-.64,2.15.58,4.41,2.73,5.05.61.18,1.25.22,1.87.11-.13,1.78,0,3.57.4,5.31,2.58.59,5.28.4,7.75-.55,1.03.73,2.09,1.47,3.32,1.73s2.67-.07,3.36-1.12c.4-.59.55-1.4,1.19-1.69.28-.1.57-.14.86-.12h4.5c.33.04.66-.04.95-.21.21-.2.35-.46.4-.75.33-1.21.38-2.49.13-3.73,1.51-.61,2.24-2.33,1.63-3.84,0-.01,0-.02-.01-.03-.22-.36-.4-.74-.55-1.14-.16-.67.15-1.35.27-2.02.17-.94-.04-1.92-.58-2.71-.24-.27-.41-.59-.51-.94-.07-.46.22-.89.45-1.3.82-1.47.99-3.22.47-4.82-.19-.56-.46-1.12-.4-1.71.07-.35.18-.7.33-1.02.62-1.61.51-3.4-.29-4.93-.25-.38-.44-.81-.54-1.25-.02-.38.02-.77.13-1.14.46-2.05.52-4.17.15-6.25-.2-1.17-.64-2.44-1.69-2.97-.23-.08-.44-.22-.6-.4-.12-.23-.17-.49-.14-.75-.15-1.91-1.83-3.34-3.74-3.18-.03,0-.06,0-.09,0-.62-2.44-3.84-3.79-6.01-2.52-.34-1.29-1.45-2.24-2.78-2.38-1.63-.13-2.47,1.21-3.65,1.84s-2.75,1.79-4.07,1.97Z"/><path class="cls-21_conference-1" d="M178.88,466.66c.17-.16.39-.25.62-.26,1.31-.19,2.61.21,3.9.46,3.02.6,6.14.37,9.21.21.08-.01.16,0,.23.02.08.05.15.12.19.21.2.51.09,1.09-.28,1.49-.37.39-.83.69-1.33.87-.75.32-1.54.55-2.34.7-1,.17-2.02.26-3.04.26-1.88.04-3.83-.04-5.6-.73-.51-.15-.95-.49-1.22-.95-.3-.55-.84-1.72-.35-2.28Z"/><path class="cls-20_conference-1" d="M174.35,441.9c-.4.48-.74,1-1.01,1.56-.92,1.88-1.13,4.04-1.16,6.13-.08,1.82.21,3.63.85,5.33.71,1.74,1.9,3.06,2.89,4.65.85,1.36,1.47,2.86,2.38,4.18,1.67,2.42,4.28,4.02,7.19,4.4,2.93.34,5.84-.79,7.78-3.02.92-1.11,1.54-2.44,2.29-3.68.73-1.07,1.4-2.18,2.01-3.32.85-1.81,1.08-3.83,1.23-5.82.21-1.94.16-3.89-.12-5.82-.29-1.94-1.18-3.74-2.54-5.16-.88-.79-1.86-1.48-2.91-2.03-1.75-1.02-3.53-2.06-5.49-2.56s-4.17-.43-5.87.67c-.73.47-1.37,1.08-2.12,1.53s-1.64.62-2.5.92c-1.13.4-2.14,1.11-2.9,2.04Z"/><path class="cls-23_conference-1 targetColor" d="M209.8,445.77s-8.45.25-10.05,3.67c-1.6,3.43-1.59,26.09-1.59,26.09h36.26s.83-23.93-.87-26.21-23.76-3.55-23.76-3.55Z" style="fill: rgb(68, 40, 107);"/><path class="cls-18_conference-1" d="M216.24,412.65c-2.14.9-3.53,2.98-4.62,5.02-4.71,8.86-6.24,19.16-5.88,29.18.11,3.23.42,6.5,1.64,9.48.17.53.49,1,.92,1.35.52.28,1.1.41,1.69.37,6.41.14,12.82-.07,19.21-.62,2.14-7.86,4.31-15.83,4.36-23.98.02-4.28-.58-8.65-2.52-12.47-1.95-3.81-5.43-7-9.6-7.91-2.73-.6-6.11.13-7.28,2.68"/><path class="cls-18_conference-1" d="M224.36,522.45s1.59-53.08,2.83-54.89c1.24-1.81,11.51-5.56,24.28-4.63s16.61,4.63,16.61,4.63l3.28,54.89h-46.99Z"/><path class="cls-18_conference-1" d="M234.06,494.43s6.42,2.91,7.14,5.12c.72,2.21,2.53,22.9,2.53,22.9h-50.11s2.78-23.81,4.76-25.84,25.02-4.73,35.67-2.18Z"/><path class="cls-20_conference-1" d="M211.13,459.98c-.4.06-.83,0-1.24.06-.99.13-1.81.81-2.14,1.75-.08.33-.18.65-.33.96-.22.3-.47.57-.75.83-.54.66-.64,1.58-.25,2.34-.96.54-1.57,1.52-1.63,2.62,0,.42.04.84,0,1.26-.12,1.31-1.19,2.3-1.74,3.48-.99,2.35.02,5.06,2.3,6.2-1.53,1.52-1.59,3.97-.13,5.56-1.12.91-2.28,1.87-2.83,3.21s-.25,3.13,1.04,3.79c-1.2,1.32-1.11,3.36.21,4.56.61.56,1.42.86,2.25.84-.64,2.15.58,4.41,2.73,5.05.61.18,1.25.22,1.87.11-.13,1.78,0,3.57.4,5.31,2.58.59,5.28.4,7.75-.55,1.03.73,2.09,1.47,3.32,1.73s2.67-.07,3.36-1.12c.4-.59.55-1.4,1.19-1.69.27-.1.57-.14.86-.12h4.5c.33.04.66-.03.95-.21.21-.2.35-.47.4-.75.33-1.21.38-2.49.13-3.73,1.51-.61,2.24-2.32,1.64-3.83,0-.01-.01-.03-.02-.04-.22-.36-.41-.75-.55-1.15-.16-.67.15-1.35.27-2.02.17-.95-.04-1.92-.58-2.71-.24-.27-.41-.59-.51-.94-.07-.46.22-.89.45-1.29.82-1.47.99-3.22.47-4.82-.19-.56-.46-1.13-.4-1.71.07-.35.18-.7.33-1.02.62-1.61.51-3.4-.29-4.93-.25-.38-.44-.81-.54-1.25-.02-.38.02-.77.13-1.14.46-2.05.52-4.18.15-6.25-.2-1.17-.64-2.43-1.69-2.97-.23-.08-.44-.22-.6-.4-.12-.23-.17-.49-.14-.75-.15-1.91-1.82-3.33-3.72-3.18-.04,0-.07,0-.11,0-.62-2.44-3.84-3.79-6.01-2.52-.34-1.29-1.45-2.24-2.78-2.38-1.63-.13-2.47,1.19-3.65,1.84s-2.75,1.79-4.07,1.98Z"/><path class="cls-21_conference-1" d="M240.84,461.04c.17-.15.39-.25.62-.26,1.31-.19,2.61.21,3.9.47,3.02.59,6.14.37,9.21.2.08-.01.16,0,.23.02.08.05.15.12.19.21.2.51.09,1.09-.28,1.49-.37.39-.83.69-1.33.87-.75.32-1.54.55-2.34.7-1,.17-2.02.26-3.04.26-1.88.04-3.83-.05-5.6-.73-.51-.15-.95-.49-1.22-.95-.3-.57-.85-1.75-.35-2.29Z"/><path class="cls-20_conference-1" d="M236.31,436.26c-.4.48-.74,1-1.01,1.56-.92,1.88-1.13,4.03-1.16,6.13-.08,1.81.21,3.63.85,5.33.71,1.74,1.9,3.06,2.89,4.65.85,1.37,1.47,2.86,2.38,4.18,1.67,2.42,4.28,4.02,7.19,4.41,2.93.34,5.84-.79,7.78-3.02.92-1.11,1.54-2.44,2.29-3.68.73-1.07,1.4-2.18,2.01-3.33.85-1.81,1.08-3.83,1.23-5.82.21-1.94.16-3.89-.12-5.81-.29-1.94-1.18-3.74-2.54-5.16-.89-.79-1.86-1.47-2.91-2.03-1.75-1.02-3.53-2.05-5.49-2.56-1.96-.51-4.17-.43-5.87.67-.73.47-1.37,1.08-2.12,1.52s-1.64.62-2.5.92c-1.13.4-2.13,1.11-2.9,2.03Z"/><path class="cls-23_conference-1 targetColor" d="M251.69,497.4s-8.45.24-10.05,3.67-1.59,27.01-1.59,27.01h36.26s.83-24.85-.87-27.13-23.76-3.55-23.76-3.55Z" style="fill: rgb(68, 40, 107);"/><path class="cls-18_conference-1" d="M262.36,463.32c-1.73-.52-3.59-.35-5.19.48-.86.46-1.19,1.35-1.92,1.83-.59.4-1.61-.07-2.1.65-.57.84-.96,2.23-1.42,3.17-.58,1.22-1.11,2.47-1.59,3.73-.94,2.54-1.69,5.14-2.23,7.79-1.04,5.27-1.46,10.65-1.23,16.03.11,3.22.42,6.5,1.64,9.48,1.34,3.26,7.52,2.32,10.24,2.28,4.76-.08,9.51-.32,14.25-.73,1.04-10.46.83-21.01-.62-31.42-.33-2.32-.73-4.67-1.85-6.72-1.52-2.77-4.64-5.68-7.98-6.57Z"/><path class="cls-23_conference-1 targetColor" d="M253.84,407.18s-8.45.25-10.05,3.67c-1.6,3.43-1.59,27.01-1.59,27.01h36.26s.83-24.85-.87-27.13-23.76-3.55-23.76-3.55Z" style="fill: rgb(68, 40, 107);"/><path class="cls-18_conference-1" d="M264.5,373.1c-1.73-.52-3.59-.35-5.19.48-.86.46-1.19,1.34-1.92,1.83-.59.4-1.61-.06-2.1.65-.57.84-.96,2.23-1.42,3.17-.58,1.22-1.11,2.46-1.59,3.73-.94,2.54-1.69,5.14-2.23,7.79-1.04,5.27-1.46,10.65-1.23,16.03.11,3.22.42,6.5,1.64,9.48,1.34,3.26,7.52,2.32,10.24,2.28,4.76-.07,9.51-.32,14.25-.73,1.04-10.46.83-21.01-.62-31.42-.33-2.32-.73-4.67-1.85-6.72-1.53-2.75-4.63-5.66-7.98-6.57Z"/><path class="cls-23_conference-1 targetColor" d="M287.89,382.63s-8.45.25-10.04,3.67c-1.59,3.43-1.59,26.09-1.59,26.09h36.26s.83-23.93-.87-26.21-23.76-3.55-23.76-3.55Z" style="fill: rgb(68, 40, 107);"/><path class="cls-18_conference-1" d="M311.64,370.3c.02-4.28-.58-8.65-2.52-12.46-3.9-7.61-15.43-13.15-20.11-3.01-1.87,4.05-1.55,8.73-1.12,13.17.42,4.44.89,9.08-.73,13.23-.99,2.53-2.73,4.76-3.22,7.45-.94,5.05,2.8,9.77,6.85,12.94,2.49,1.95,5.45,3.7,8.61,3.45,3.47-.27,6.4-3.01,7.7-6.24,1.59-3.9.94-8.21,2.2-12.23,1.61-5.14,2.33-10.92,2.36-16.29Z"/><path class="cls-23_conference-1 targetColor" d="M392.62,388.58s-8.45.24-10.04,3.67c-1.59,3.43-1.59,26.09-1.59,26.09h36.26s.83-23.93-.87-26.21-23.76-3.55-23.76-3.55Z" style="fill: rgb(68, 40, 107);"/><path class="cls-18_conference-1" d="M399.06,355.46c-2.14.89-3.53,2.97-4.62,5.02-4.71,8.86-6.23,19.15-5.87,29.18.11,3.22.42,6.5,1.64,9.48.17.53.49,1,.92,1.35.52.28,1.1.41,1.69.37,6.41.14,12.82-.07,19.2-.62,2.15-7.86,4.31-15.84,4.36-23.99,0-4.28-.58-8.65-2.53-12.46-1.95-3.81-5.4-7-9.58-7.91-2.73-.6-6.11.13-7.28,2.68"/><path class="cls-18_conference-1" d="M292.68,464.94s1.59-53.08,2.83-54.89c1.24-1.81,11.51-5.56,24.28-4.63,12.77.92,16.6,4.63,16.6,4.63l3.28,54.89h-46.99Z"/><path class="cls-18_conference-1" d="M302.37,436.91s6.42,2.92,7.14,5.12c.72,2.2,2.53,22.9,2.53,22.9h-50.11s2.78-23.81,4.76-25.84,25.02-4.73,35.67-2.18Z"/><path class="cls-20_conference-1" d="M279.44,402.47c-.4.06-.83,0-1.24.06-.99.13-1.81.81-2.14,1.75-.08.33-.18.65-.33.95-.22.3-.47.57-.75.83-.54.66-.64,1.58-.25,2.34-.96.54-1.57,1.52-1.63,2.62,0,.42.04.84,0,1.26-.12,1.3-1.19,2.3-1.74,3.48-.99,2.35.02,5.06,2.3,6.19-1.53,1.52-1.59,3.97-.13,5.56-1.12.91-2.28,1.88-2.83,3.21s-.25,3.14,1.04,3.79c-1.2,1.32-1.1,3.37.22,4.57.61.56,1.42.86,2.25.84-.64,2.15.58,4.41,2.73,5.05.61.18,1.25.22,1.87.11-.13,1.78,0,3.57.4,5.31,2.58.59,5.28.4,7.75-.55,1.03.73,2.09,1.47,3.32,1.73s2.67-.07,3.36-1.12c.4-.59.55-1.4,1.19-1.69.28-.1.57-.14.86-.12h4.5c.33.04.66-.04.95-.21.21-.2.35-.46.4-.75.33-1.21.38-2.49.13-3.73,1.51-.61,2.24-2.33,1.63-3.84,0-.01-.01-.02-.02-.04-.22-.36-.41-.74-.55-1.14-.16-.67.15-1.35.27-2.02.17-.94-.04-1.92-.58-2.71-.24-.27-.41-.59-.51-.94-.07-.46.22-.89.45-1.29.82-1.47.99-3.22.47-4.82-.19-.56-.46-1.13-.4-1.72.07-.35.18-.7.33-1.02.62-1.61.51-3.4-.29-4.92-.25-.38-.44-.81-.54-1.26-.02-.38.02-.77.13-1.14.46-2.05.52-4.17.15-6.25-.2-1.17-.64-2.44-1.69-2.97-.23-.08-.44-.22-.6-.4-.12-.23-.17-.49-.14-.75-.15-1.91-1.83-3.34-3.74-3.18-.03,0-.06,0-.09,0-.62-2.44-3.84-3.79-6.01-2.52-.34-1.29-1.45-2.24-2.78-2.38-1.63-.13-2.47,1.21-3.65,1.84s-2.73,1.79-4.07,1.97Z"/><path class="cls-21_conference-1" d="M309.14,403.5c.17-.16.39-.25.62-.26,1.31-.19,2.61.21,3.9.46,3.02.6,6.14.37,9.21.21.08-.01.16,0,.23.02.08.05.15.12.19.21.2.51.09,1.09-.28,1.49-.37.39-.83.69-1.33.87-.75.32-1.54.55-2.34.7-1,.17-2.02.26-3.04.26-1.88.04-3.83-.04-5.6-.73-.51-.15-.95-.49-1.22-.95-.3-.54-.85-1.71-.35-2.28Z"/><path class="cls-18_conference-1" d="M304.61,378.75c-.4.48-.74,1-1.01,1.56-.92,1.88-1.13,4.04-1.16,6.13-.08,1.81.21,3.63.85,5.33.71,1.74,1.9,3.06,2.89,4.65.85,1.36,1.47,2.86,2.38,4.18,1.67,2.42,4.28,4.02,7.19,4.4,2.93.34,5.84-.79,7.78-3.02.92-1.11,1.54-2.44,2.29-3.68.73-1.07,1.4-2.18,2.01-3.32.85-1.81,1.08-3.83,1.23-5.82.21-1.94.16-3.89-.12-5.82-.29-1.94-1.18-3.74-2.54-5.16-.88-.8-1.86-1.48-2.91-2.03-1.75-1.02-3.53-2.06-5.49-2.56s-4.17-.43-5.87.67c-.73.47-1.37,1.08-2.12,1.52s-1.64.62-2.5.92c-1.13.4-2.14,1.11-2.9,2.04Z"/><path class="cls-18_conference-1" d="M344.84,464.94s1.59-53.08,2.83-54.89,11.51-5.56,24.28-4.63c12.78.92,16.6,4.63,16.6,4.63l3.27,54.89h-46.99Z"/><path class="cls-18_conference-1" d="M354.54,436.91s6.42,2.92,7.14,5.12c.72,2.2,2.53,22.9,2.53,22.9h-50.11s2.78-23.81,4.76-25.84c1.98-2.03,25.03-4.73,35.68-2.18Z"/><path class="cls-18_conference-1" d="M331.61,402.47c-.4.06-.83,0-1.23.06-.99.13-1.82.81-2.15,1.75-.08.33-.18.65-.33.95-.22.3-.47.57-.74.83-.54.66-.64,1.58-.25,2.34-.96.53-1.58,1.52-1.64,2.62,0,.42.05.84,0,1.26-.12,1.3-1.19,2.3-1.74,3.48-.99,2.35.02,5.06,2.3,6.19-1.53,1.52-1.58,3.97-.13,5.56-1.12.91-2.28,1.88-2.83,3.21s-.25,3.14,1.04,3.79c-1.2,1.32-1.1,3.37.22,4.57.61.56,1.42.86,2.25.84-.64,2.15.59,4.41,2.74,5.05.61.18,1.24.22,1.87.11-.13,1.78,0,3.57.4,5.31,2.58.59,5.28.4,7.75-.55,1.02.73,2.09,1.47,3.31,1.73s2.67-.07,3.36-1.12c.4-.59.55-1.4,1.19-1.69.28-.1.57-.14.87-.12h4.5c.33.04.66-.04.94-.21.21-.2.35-.46.4-.75.33-1.21.38-2.49.13-3.73,1.51-.61,2.24-2.33,1.63-3.84,0-.01-.01-.02-.02-.04-.22-.36-.41-.74-.55-1.14-.16-.67.15-1.35.27-2.02.17-.94-.04-1.92-.58-2.71-.24-.27-.41-.59-.51-.94-.07-.46.22-.89.45-1.29.82-1.47.99-3.22.47-4.82-.19-.56-.46-1.13-.4-1.72.07-.35.18-.7.33-1.02.62-1.61.51-3.4-.29-4.92-.25-.38-.44-.81-.55-1.26-.02-.38.02-.77.13-1.14.46-2.05.52-4.17.15-6.25-.21-1.17-.64-2.44-1.7-2.97-.23-.08-.44-.22-.6-.4-.12-.23-.17-.49-.14-.75-.15-1.91-1.83-3.34-3.74-3.18-.03,0-.06,0-.09,0-.61-2.44-3.84-3.79-6-2.52-.34-1.29-1.45-2.24-2.78-2.38-1.63-.13-2.48,1.21-3.65,1.84s-2.77,1.79-4.08,1.97Z"/><path class="cls-21_conference-1" d="M361.32,403.5c.17-.16.39-.25.62-.26,1.31-.19,2.61.21,3.9.46,3.02.6,6.14.37,9.21.21.08,0,.16,0,.24.02.08.05.15.12.18.21.2.51.09,1.09-.28,1.49-.37.39-.82.69-1.33.87-.75.32-1.54.55-2.35.7-1.01.17-2.04.26-3.06.27-1.88.04-3.83-.04-5.6-.73-.52-.14-.95-.48-1.22-.95-.28-.54-.84-1.72-.32-2.29Z"/><path class="cls-20_conference-1" d="M356.79,378.75c-.4.48-.74,1-1.01,1.56-.92,1.88-1.13,4.04-1.16,6.13-.08,1.81.21,3.63.85,5.33.71,1.74,1.9,3.06,2.89,4.65.85,1.36,1.47,2.86,2.38,4.18,1.66,2.42,4.28,4.02,7.19,4.4,2.93.34,5.84-.79,7.78-3.02.92-1.11,1.53-2.44,2.28-3.68.67-1.11,1.46-2.15,2.01-3.32.85-1.81,1.08-3.83,1.23-5.82.21-1.94.16-3.89-.12-5.82-.29-1.94-1.18-3.74-2.54-5.16-.88-.79-1.86-1.48-2.91-2.03-1.75-1.02-3.53-2.06-5.5-2.56s-4.17-.43-5.87.67c-.73.47-1.37,1.08-2.12,1.52s-1.64.62-2.5.92c-1.13.4-2.14,1.1-2.9,2.04Z"/><path class="cls-23_conference-1 targetColor" d="M381.96,434.25s-8.45.25-10.05,3.67c-1.6,3.43-1.59,27.01-1.59,27.01h36.24s.83-24.85-.87-27.13c-1.7-2.29-23.74-3.55-23.74-3.55Z" style="fill: rgb(68, 40, 107);"/><path class="cls-18_conference-1" d="M392.62,400.17c-1.73-.52-3.59-.35-5.19.48-.86.46-1.19,1.34-1.92,1.83-.59.4-1.61-.06-2.1.65-.58.84-.96,2.23-1.42,3.17-.59,1.22-1.12,2.46-1.59,3.73-.94,2.54-1.69,5.14-2.23,7.79-1.04,5.27-1.46,10.65-1.23,16.03.11,3.22.42,6.5,1.64,9.48,1.34,3.26,7.54,2.32,10.24,2.28,4.76-.07,9.51-.32,14.25-.73,1.04-10.46.83-21.01-.62-31.42-.33-2.32-.73-4.67-1.85-6.72-1.53-2.77-4.64-5.66-7.98-6.57Z"/><path class="cls-23_conference-1 targetColor" d="M253.84,497.42s-8.45.24-10.05,3.67c-1.6,3.43-1.59,27.01-1.59,27.01h36.26s.83-24.85-.87-27.13-23.76-3.55-23.76-3.55Z" style="fill: rgb(68, 40, 107);"/><path class="cls-18_conference-1" d="M264.5,463.34c-1.73-.52-3.59-.35-5.19.48-.86.46-1.19,1.35-1.92,1.83-.59.4-1.61-.07-2.1.65-.57.84-.96,2.23-1.42,3.17-.58,1.22-1.11,2.47-1.59,3.73-.94,2.54-1.69,5.14-2.23,7.79-1.04,5.27-1.46,10.65-1.23,16.03.11,3.22.42,6.5,1.64,9.48,1.34,3.26,7.52,2.32,10.24,2.28,4.76-.07,9.51-.32,14.25-.73,1.04-10.46.83-21.01-.62-31.42-.33-2.32-.73-4.67-1.85-6.72-1.53-2.77-4.63-5.66-7.98-6.57Z"/><path class="cls-23_conference-1 targetColor" d="M287.89,472.86s-8.45.25-10.04,3.67c-1.59,3.43-1.59,26.09-1.59,26.09h36.26s.83-23.93-.87-26.21c-1.7-2.29-23.76-3.55-23.76-3.55Z" style="fill: rgb(68, 40, 107);"/><path class="cls-18_conference-1" d="M294.34,439.74c-2.15.9-3.54,2.98-4.63,5.02-4.71,8.86-6.23,19.15-5.87,29.18.11,3.23.42,6.5,1.64,9.48.17.53.49,1,.92,1.35.52.28,1.1.41,1.69.37,6.41.14,12.82-.07,19.2-.62,2.15-7.86,4.31-15.83,4.36-23.98.02-4.28-.58-8.65-2.52-12.47-1.95-3.81-5.4-7-9.58-7.91-2.73-.6-6.11.13-7.28,2.68"/><path class="cls-18_conference-1" d="M292.68,555.18s1.59-53.08,2.83-54.89c1.24-1.81,11.51-5.56,24.28-4.63,12.77.92,16.6,4.63,16.6,4.63l3.28,54.89h-46.99Z"/><path class="cls-20_conference-1" d="M279.44,492.71c-.4.06-.83,0-1.24.06-.99.13-1.81.81-2.14,1.75-.08.33-.18.65-.33.95-.22.3-.47.57-.75.83-.54.66-.64,1.58-.25,2.34-.96.54-1.57,1.52-1.63,2.62,0,.42.04.84,0,1.25-.12,1.31-1.19,2.3-1.74,3.49-.99,2.35.02,5.06,2.3,6.19-1.53,1.52-1.59,3.97-.13,5.56-1.12.91-2.28,1.88-2.83,3.21s-.25,3.13,1.04,3.79c-1.2,1.32-1.11,3.36.21,4.56.61.56,1.42.86,2.25.84-.64,2.15.58,4.41,2.73,5.05.61.18,1.25.22,1.87.11-.13,1.78,0,3.57.4,5.31,2.58.59,5.28.4,7.75-.55,1.03.73,2.09,1.47,3.32,1.73s2.67-.07,3.36-1.12c.4-.59.55-1.4,1.19-1.69.28-.1.57-.14.86-.12h4.5c.33.04.66-.04.95-.21.21-.2.35-.46.4-.75.33-1.21.38-2.49.13-3.73,1.51-.61,2.24-2.33,1.63-3.84,0-.01-.01-.02-.02-.04-.22-.36-.41-.74-.55-1.14-.16-.67.15-1.35.27-2.02.17-.94-.04-1.92-.58-2.71-.24-.27-.41-.59-.51-.94-.07-.46.22-.89.45-1.3.82-1.47.99-3.22.47-4.82-.19-.56-.46-1.12-.4-1.71.07-.35.18-.7.33-1.02.62-1.61.51-3.4-.29-4.93-.25-.38-.44-.81-.54-1.25-.02-.38.02-.77.13-1.14.46-2.05.52-4.18.15-6.25-.2-1.16-.64-2.43-1.69-2.96-.23-.08-.44-.22-.6-.4-.12-.23-.17-.49-.14-.75-.15-1.91-1.83-3.34-3.74-3.18-.03,0-.06,0-.09,0-.62-2.44-3.84-3.79-6.01-2.52-.34-1.29-1.45-2.24-2.78-2.38-1.63-.13-2.47,1.21-3.65,1.84s-2.73,1.79-4.07,1.98Z"/><path class="cls-21_conference-1" d="M309.14,493.75c.17-.16.39-.25.62-.26,1.31-.19,2.61.21,3.9.46,3.02.6,6.14.37,9.21.21.08-.01.16,0,.23.02.08.05.15.12.19.21.2.51.09,1.09-.28,1.49-.37.39-.83.69-1.33.87-.75.32-1.54.55-2.34.7-1,.17-2.02.26-3.04.26-1.88.04-3.83-.04-5.6-.73-.51-.15-.95-.49-1.22-.95-.3-.55-.85-1.72-.35-2.28Z"/><path class="cls-20_conference-1" d="M304.61,468.98c-.4.48-.74,1-1.01,1.56-.92,1.88-1.13,4.04-1.16,6.13-.08,1.82.21,3.63.85,5.33.71,1.74,1.9,3.06,2.89,4.65.85,1.36,1.47,2.86,2.38,4.18,1.67,2.42,4.28,4.02,7.19,4.4,2.93.34,5.84-.79,7.78-3.02.92-1.11,1.54-2.44,2.29-3.68.73-1.07,1.4-2.18,2.01-3.32.85-1.81,1.08-3.83,1.23-5.82.21-1.94.16-3.89-.12-5.82-.29-1.94-1.18-3.74-2.54-5.16-.88-.8-1.86-1.48-2.91-2.03-1.75-1.02-3.53-2.06-5.49-2.56s-4.17-.43-5.87.67c-.73.47-1.37,1.08-2.12,1.53s-1.64.62-2.5.92c-1.13.4-2.14,1.11-2.9,2.04Z"/><path class="cls-23_conference-1 targetColor" d="M340.06,472.86s-8.45.25-10.05,3.67c-1.6,3.43-1.59,26.09-1.59,26.09h36.26s.83-23.93-.87-26.21c-1.7-2.29-23.76-3.55-23.76-3.55Z" style="fill: rgb(68, 40, 107);"/><path class="cls-18_conference-1" d="M346.5,439.74c-2.14.9-3.53,2.98-4.62,5.02-4.71,8.86-6.23,19.15-5.88,29.18.12,3.23.42,6.5,1.64,9.48.17.53.49,1,.92,1.35.52.28,1.1.41,1.69.37,6.41.14,12.82-.07,19.21-.62,2.15-7.86,4.31-15.83,4.35-23.98.02-4.28-.58-8.65-2.52-12.47-1.95-3.81-5.4-7-9.58-7.91-2.73-.6-6.11.13-7.28,2.68"/><path class="cls-18_conference-1" d="M354.62,549.53s1.59-53.08,2.83-54.89c1.24-1.81,11.51-5.56,24.28-4.63,12.77.92,16.6,4.63,16.6,4.63l3.28,54.89h-46.99Z"/><path class="cls-20_conference-1" d="M341.39,487.07c-.4.06-.83,0-1.24.06-.99.13-1.81.81-2.14,1.75-.08.33-.18.65-.33.96-.22.3-.47.57-.75.83-.54.66-.64,1.58-.25,2.34-.96.54-1.57,1.52-1.63,2.62,0,.42.04.84,0,1.26-.12,1.31-1.19,2.3-1.74,3.48-.99,2.35.02,5.06,2.3,6.2-1.53,1.52-1.59,3.97-.13,5.56-1.12.91-2.28,1.87-2.83,3.21s-.25,3.13,1.04,3.79c-1.2,1.32-1.11,3.36.21,4.56.61.56,1.42.86,2.25.84-.64,2.15.59,4.41,2.74,5.05.6.18,1.24.22,1.86.11-.13,1.78,0,3.57.4,5.31,2.58.59,5.28.4,7.75-.55,1.02.73,2.09,1.47,3.31,1.73s2.67-.07,3.36-1.12c.4-.59.55-1.4,1.19-1.69.27-.1.57-.14.86-.12h4.5c.33.04.66-.03.95-.21.21-.2.35-.47.4-.75.33-1.21.38-2.49.13-3.73,1.51-.61,2.24-2.32,1.64-3.83,0-.01-.01-.03-.02-.04-.22-.36-.41-.75-.55-1.15-.16-.67.15-1.35.27-2.02.17-.95-.04-1.92-.58-2.71-.24-.27-.41-.59-.51-.94-.07-.46.22-.89.45-1.29.82-1.47.99-3.22.47-4.82-.19-.56-.46-1.13-.4-1.71.07-.35.18-.7.33-1.02.62-1.61.51-3.4-.29-4.93-.25-.38-.44-.81-.54-1.26-.02-.38.02-.77.13-1.13.46-2.05.52-4.18.15-6.25-.2-1.17-.64-2.43-1.69-2.97-.23-.08-.44-.22-.6-.4-.12-.23-.17-.49-.14-.75-.15-1.91-1.82-3.33-3.72-3.18-.04,0-.07,0-.11,0-.62-2.44-3.84-3.79-6.01-2.52-.34-1.29-1.45-2.24-2.78-2.38-1.63-.13-2.47,1.19-3.65,1.84s-2.75,1.79-4.07,1.98Z"/><path class="cls-21_conference-1" d="M371.1,488.11c.17-.15.39-.25.62-.26,1.31-.19,2.61.21,3.9.47,3.02.59,6.14.37,9.21.2.08-.01.16,0,.23.02.09.04.15.12.19.21.2.51.09,1.09-.28,1.49-.37.39-.83.69-1.33.87-.75.32-1.54.55-2.34.7-1,.17-2.02.26-3.04.26-1.88.04-3.83-.05-5.6-.73-.51-.15-.95-.49-1.22-.95-.3-.55-.85-1.73-.35-2.29Z"/><path class="cls-20_conference-1" d="M366.57,463.35c-.4.48-.74,1-1.01,1.56-.92,1.89-1.13,4.04-1.16,6.13-.08,1.81.21,3.63.85,5.33.71,1.74,1.9,3.06,2.89,4.65.85,1.37,1.47,2.86,2.38,4.18,1.67,2.42,4.28,4.02,7.19,4.41,2.93.34,5.84-.79,7.78-3.02.92-1.11,1.54-2.44,2.29-3.68.73-1.07,1.4-2.18,2.01-3.33.85-1.81,1.08-3.83,1.23-5.82.21-1.94.16-3.89-.12-5.81-.29-1.94-1.18-3.74-2.54-5.16-.89-.79-1.86-1.47-2.91-2.03-1.75-1.02-3.53-2.05-5.49-2.56s-4.17-.43-5.87.67c-.73.47-1.37,1.08-2.12,1.52s-1.64.62-2.5.92c-1.13.4-2.13,1.11-2.9,2.03Z"/><path class="cls-18_conference-1" d="M435.22,447.31s1.59-53.08,2.83-54.89c1.24-1.81,11.51-5.53,24.28-4.63,12.78.9,16.6,4.63,16.6,4.63l3.27,54.89h-46.99Z"/><path class="cls-18_conference-1" d="M444.19,409.37s6.42,2.92,7.14,5.12,2.53,22.9,2.53,22.9h-50.11s2.78-23.81,4.76-25.84,25.02-4.72,35.67-2.18Z"/><path class="cls-20_conference-1" d="M421.24,374.93c-.4.06-.83,0-1.24.06-.99.13-1.81.81-2.14,1.75-.08.33-.18.65-.33.95-.22.3-.47.57-.75.83-.54.66-.64,1.58-.25,2.34-.96.53-1.58,1.52-1.63,2.62,0,.4.04.84,0,1.25-.12,1.31-1.19,2.3-1.74,3.49-.99,2.35.02,5.06,2.3,6.19-1.53,1.52-1.59,3.97-.13,5.56-1.12.91-2.28,1.88-2.83,3.21s-.25,3.13,1.04,3.79c-1.2,1.32-1.11,3.36.21,4.56.61.56,1.42.86,2.25.84-.64,2.15.58,4.41,2.73,5.05.61.18,1.25.22,1.87.11-.13,1.78,0,3.57.4,5.31,2.58.59,5.28.4,7.75-.55,1.02.73,2.09,1.47,3.31,1.73s2.67-.07,3.36-1.12c.4-.59.55-1.4,1.19-1.69.28-.1.57-.14.86-.12h4.5c.33.04.66-.04.95-.21.21-.2.35-.46.4-.75.33-1.21.38-2.49.13-3.73,1.51-.61,2.24-2.33,1.63-3.84,0-.01-.01-.02-.02-.04-.22-.36-.41-.75-.55-1.15-.16-.67.15-1.35.27-2.02.18-.94-.02-1.9-.54-2.7-.24-.27-.41-.59-.51-.94-.07-.46.22-.89.45-1.3.82-1.47.99-3.22.47-4.82-.19-.56-.46-1.13-.4-1.71.07-.35.18-.7.33-1.02.62-1.61.51-3.4-.29-4.93-.25-.38-.44-.81-.54-1.25-.02-.38.02-.77.13-1.14.46-2.05.52-4.18.15-6.25-.2-1.16-.64-2.43-1.69-2.96-.23-.08-.44-.22-.6-.4-.12-.23-.17-.49-.14-.75-.14-1.91-1.81-3.35-3.72-3.2-.04,0-.07,0-.11,0-.62-2.44-3.84-3.79-6.01-2.52-.34-1.29-1.45-2.24-2.78-2.38-1.63-.13-2.47,1.21-3.65,1.84s-2.78,1.79-4.11,1.98Z"/><path class="cls-21_conference-1" d="M451.7,385.89c.17-.16.39-.25.62-.26,1.31-.19,2.61.21,3.9.46,3.02.6,6.14.37,9.21.21.08-.01.16,0,.23.02.09.04.15.12.19.21.2.51.09,1.09-.28,1.49-.37.39-.82.69-1.33.87-.76.31-1.54.55-2.35.7-1,.17-2.02.26-3.04.26-1.88.04-3.83-.04-5.6-.73-.52-.14-.96-.48-1.22-.95-.3-.54-.85-1.73-.35-2.28Z"/><path class="cls-20_conference-1" d="M447.17,361.13c-.4.48-.74,1-1.01,1.56-.92,1.89-1.13,4.04-1.16,6.13-.08,1.81.21,3.62.85,5.31.71,1.74,1.9,3.06,2.89,4.65.85,1.36,1.47,2.86,2.38,4.18,1.67,2.42,4.28,4.02,7.19,4.4,2.93.34,5.84-.79,7.77-3.02.92-1.11,1.54-2.44,2.29-3.67.67-1.11,1.46-2.15,2.01-3.33.85-1.81,1.08-3.83,1.23-5.82.21-1.94.16-3.89-.12-5.82-.29-1.94-1.18-3.74-2.54-5.16-.88-.79-1.86-1.48-2.91-2.03-1.75-1.02-3.53-2.05-5.49-2.56-1.96-.51-4.17-.43-5.87.67-.73.47-1.37,1.08-2.11,1.52s-1.64.62-2.5.92c-1.13.41-2.13,1.11-2.9,2.05Z"/><path class="cls-18_conference-1" d="M392.62,490.4c-1.73-.52-3.59-.35-5.19.48-.86.46-1.19,1.35-1.92,1.83-.59.4-1.61-.07-2.1.65-.58.84-.96,2.23-1.42,3.17-.59,1.22-1.12,2.46-1.59,3.73-.94,2.54-1.69,5.14-2.23,7.79-1.04,5.27-1.46,10.65-1.23,16.03.11,3.22.42,6.5,1.64,9.48,1.34,3.26,7.54,2.32,10.24,2.28,4.76-.08,9.51-.32,14.25-.73,1.04-10.46.83-21.01-.62-31.42-.33-2.32-.73-4.67-1.85-6.72-1.53-2.76-4.64-5.65-7.98-6.57Z"/><path class="cls-23_conference-1 targetColor" d="M-5.77,444.71s-8.45.24-10.04,3.67-1.59,27.01-1.59,27.01H18.86s.83-24.85-.87-27.13-23.76-3.55-23.76-3.55Z" style="fill: rgb(68, 40, 107);"/><path class="cls-18_conference-1" d="M4.9,410.64c-1.73-.52-3.59-.35-5.19.48-.86.46-1.19,1.34-1.92,1.83-.6.4-1.61-.07-2.1.65-.58.84-.96,2.23-1.42,3.17-.58,1.22-1.11,2.46-1.59,3.73-.95,2.54-1.69,5.14-2.23,7.79-1.04,5.27-1.46,10.65-1.23,16.02.12,3.23.42,6.5,1.65,9.48,1.33,3.26,7.52,2.32,10.24,2.28,4.76-.08,9.51-.32,14.25-.73,1.04-10.46.83-21.01-.63-31.42-.32-2.31-.73-4.67-1.85-6.72-1.54-2.78-4.64-5.67-7.98-6.57Z"/><path class="cls-23_conference-1 targetColor" d="M28.29,420.17s-8.45.24-10.05,3.67c-1.6,3.43-1.59,26.09-1.59,26.09h36.26s.83-23.93-.87-26.21c-1.7-2.29-23.76-3.55-23.76-3.55Z" style="fill: rgb(68, 40, 107);"/><path class="cls-17_conference-1" d="M47.69,431.82c1.25-.11,3.54-14.81,3.76-16.45.29-2.12,0-4.06.59-6.11.75-2.55,1.63-4.96,1.72-7.66-.03-1.08.02-2.15.15-3.22.19-1.05.63-2.04.85-3.08.92-4.45-2.74-8.88-7.1-10.18-4.36-1.3-9.07-.16-13.28,1.59-1.18.42-2.27,1.04-3.24,1.84-1.59,1.43-2.36,3.61-2.65,5.75s-.2,4.3-.44,6.44c-.79,7.09-5.19,13.76-4.19,20.82.42,2.99.86,6.4,1.98,9.2.18.53.51.99.96,1.33.52.28,1.1.41,1.69.37,6.4.13,12.81-.07,19.19-.62Z"/><path class="cls-18_conference-1" d="M33.06,502.47s1.59-53.08,2.82-54.89,11.51-5.56,24.28-4.63,16.6,4.63,16.6,4.63l3.27,54.89h-46.98Z"/><path class="cls-18_conference-1" d="M42.76,474.45s6.42,2.91,7.14,5.12,2.53,22.9,2.53,22.9H2.33s2.75-23.81,4.76-25.84c2.01-2.04,25.02-4.73,35.67-2.18Z"/><path class="cls-20_conference-1" d="M19.83,440.01c-.4.06-.83,0-1.23.06-.99.13-1.82.81-2.15,1.75-.08.33-.18.65-.32.95-.23.29-.48.57-.75.83-.54.66-.64,1.58-.25,2.34-.96.54-1.58,1.53-1.64,2.62,0,.4.05.84,0,1.25-.12,1.31-1.19,2.3-1.74,3.48-.99,2.35.02,5.06,2.3,6.2-1.53,1.52-1.58,3.97-.13,5.56-1.12.91-2.28,1.87-2.83,3.21s-.25,3.13,1.04,3.79c-1.2,1.32-1.1,3.37.23,4.57.61.55,1.41.85,2.24.84-.64,2.15.59,4.41,2.74,5.05.61.18,1.24.22,1.87.11-.13,1.78,0,3.57.4,5.31,2.58.59,5.28.4,7.75-.55,1.02.73,2.09,1.47,3.31,1.73s2.68-.07,3.36-1.12c.4-.59.55-1.4,1.19-1.69.28-.1.57-.14.87-.12h4.5c.33.04.66-.04.94-.21.21-.2.35-.47.4-.75.33-1.21.38-2.49.13-3.72,1.51-.61,2.24-2.33,1.63-3.84,0-.01-.01-.02-.02-.04-.22-.36-.41-.75-.55-1.15-.16-.67.15-1.35.28-2.02.16-.95-.05-1.92-.58-2.71-.24-.27-.41-.59-.51-.94-.07-.46.22-.89.45-1.29.82-1.47.99-3.22.47-4.82-.19-.56-.46-1.13-.4-1.71.07-.35.18-.7.33-1.02.62-1.61.51-3.4-.29-4.93-.25-.38-.44-.81-.55-1.25-.02-.38.02-.77.13-1.14.46-2.05.52-4.18.15-6.25-.21-1.16-.64-2.43-1.7-2.97-.23-.08-.44-.22-.6-.4-.12-.23-.17-.49-.14-.75-.14-1.91-1.8-3.35-3.71-3.2-.04,0-.08,0-.12.01-.61-2.44-3.83-3.79-6-2.52-.34-1.29-1.45-2.24-2.78-2.38-1.63-.13-2.48,1.21-3.65,1.84s-2.77,1.81-4.08,2Z"/><path class="cls-21_conference-1" d="M49.53,441.04c.17-.16.39-.25.62-.27,1.31-.19,2.61.21,3.9.47,3.02.59,6.14.37,9.22.2.08-.01.16,0,.23.03.08.04.15.12.18.21.2.51.09,1.09-.28,1.49-.37.39-.82.69-1.33.87-.75.32-1.54.55-2.35.7-1,.17-2.02.26-3.04.26-1.88.04-3.83-.05-5.6-.73-.52-.15-.95-.49-1.22-.95-.3-.54-.85-1.73-.35-2.28Z"/><path class="cls-20_conference-1" d="M45.01,416.28c-.4.48-.74,1-1.01,1.56-.92,1.88-1.13,4.04-1.16,6.13-.08,1.81.21,3.62.85,5.32.71,1.74,1.9,3.06,2.89,4.65.85,1.36,1.47,2.86,2.38,4.17,1.67,2.43,4.29,4.04,7.22,4.42,2.93.34,5.84-.79,7.78-3.02.92-1.11,1.54-2.44,2.28-3.68.73-1.07,1.4-2.18,2.01-3.32.85-1.81,1.08-3.83,1.23-5.82.21-1.94.16-3.89-.12-5.81-.29-1.94-1.18-3.74-2.54-5.16-.88-.79-1.86-1.47-2.91-2.03-1.75-1.02-3.53-2.05-5.5-2.56-1.96-.51-4.17-.43-5.87.67-.73.47-1.37,1.08-2.12,1.53s-1.64.62-2.5.92c-1.14.4-2.15,1.1-2.92,2.03Z"/><path class="cls-23_conference-1 targetColor" d="M80.45,420.17s-8.45.24-10.04,3.67-1.59,26.09-1.59,26.09h36.26s.83-23.93-.87-26.21-23.76-3.55-23.76-3.55Z" style="fill: rgb(68, 40, 107);"/><path class="cls-18_conference-1" d="M86.89,387.03c-2.14.89-3.53,2.97-4.62,5.02-4.71,8.86-6.23,19.15-5.87,29.18.11,3.22.42,6.5,1.64,9.48.17.53.49,1,.92,1.35.52.28,1.1.41,1.69.37,6.41.14,12.82-.07,19.2-.62,2.15-7.86,4.31-15.84,4.36-23.99,0-4.28-.58-8.65-2.53-12.46-1.95-3.81-5.4-7-9.58-7.91-2.73-.6-6.11.13-7.28,2.68"/><path class="cls-18_conference-1" d="M95.02,496.83s1.59-53.08,2.82-54.89c1.23-1.81,11.51-5.53,24.28-4.63s16.59,4.63,16.59,4.63l3.27,54.89h-46.97Z"/><path class="cls-18_conference-1" d="M104.72,468.81s6.42,2.91,7.14,5.12c.72,2.21,2.53,22.9,2.53,22.9h-50.11s2.75-23.81,4.76-25.84c2.01-2.03,25.02-4.73,35.67-2.18Z"/><path class="cls-20_conference-1" d="M81.78,434.36c-.4.06-.83,0-1.23.06-.99.13-1.82.81-2.15,1.75-.08.33-.18.65-.32.95-.23.3-.47.57-.75.83-.54.66-.64,1.58-.25,2.34-.96.54-1.57,1.52-1.64,2.62,0,.42.05.84,0,1.26-.12,1.3-1.19,2.3-1.74,3.48-.99,2.35.02,5.06,2.3,6.19-1.53,1.52-1.58,3.97-.13,5.56-1.12.91-2.28,1.88-2.83,3.21s-.25,3.13,1.04,3.79c-1.2,1.32-1.1,3.37.22,4.57.61.56,1.41.86,2.24.84-.64,2.15.59,4.41,2.74,5.05.61.18,1.24.22,1.87.11-.13,1.78,0,3.57.4,5.32,2.58.59,5.28.4,7.75-.55,1.02.73,2.09,1.47,3.31,1.73s2.68-.07,3.36-1.12c.4-.59.55-1.4,1.19-1.69.28-.1.57-.14.87-.12h4.5c.33.04.66-.04.94-.21.21-.2.35-.46.4-.75.33-1.22.38-2.49.13-3.73,1.51-.61,2.24-2.32,1.64-3.83,0-.01-.01-.03-.02-.04-.22-.36-.41-.74-.55-1.14-.16-.67.15-1.35.28-2.02.16-.95-.04-1.92-.58-2.71-.24-.27-.41-.59-.51-.94-.07-.46.22-.89.45-1.29.82-1.47.99-3.22.47-4.82-.19-.56-.46-1.13-.4-1.72.07-.35.18-.69.33-1.02.62-1.61.51-3.4-.29-4.93-.26-.38-.44-.81-.55-1.26-.02-.38.02-.77.13-1.14.46-2.05.51-4.17.15-6.25-.21-1.17-.64-2.44-1.7-2.97-.23-.08-.44-.22-.6-.4-.12-.23-.17-.49-.14-.75-.15-1.91-1.82-3.33-3.72-3.18-.04,0-.07,0-.11,0-.61-2.44-3.83-3.79-6-2.52-.34-1.3-1.45-2.24-2.78-2.38-1.63-.13-2.47,1.19-3.65,1.83s-2.77,1.79-4.08,1.98Z"/><path class="cls-21_conference-1" d="M111.49,435.41c.17-.16.39-.25.62-.26,1.3-.19,2.61.21,3.9.46,3.02.6,6.14.37,9.22.21.08-.01.16,0,.23.02.08.05.15.12.18.21.2.51.09,1.09-.27,1.49-.37.4-.83.7-1.34.88-.76.31-1.54.55-2.35.7-1,.17-2.02.26-3.04.26-1.88.04-3.83-.04-5.6-.73-.52-.14-.95-.48-1.22-.95-.29-.56-.85-1.73-.34-2.29Z"/><path class="cls-20_conference-1" d="M106.97,410.64c-.4.48-.74,1-1.01,1.56-.92,1.89-1.13,4.04-1.16,6.13-.08,1.81.21,3.63.85,5.33.72,1.74,1.9,3.06,2.89,4.65.85,1.36,1.48,2.86,2.38,4.18,1.66,2.42,4.28,4.02,7.19,4.4,2.93.34,5.84-.79,7.78-3.02.92-1.11,1.54-2.44,2.28-3.67.67-1.11,1.46-2.15,2.01-3.33.85-1.81,1.08-3.83,1.23-5.82.21-1.94.17-3.89-.12-5.82-.29-1.94-1.18-3.74-2.54-5.16-.88-.79-1.86-1.48-2.91-2.03-1.75-1.02-3.53-2.05-5.5-2.56s-4.17-.43-5.87.67c-.73.47-1.37,1.08-2.11,1.52s-1.64.62-2.5.92c-1.13.4-2.13,1.11-2.9,2.04Z"/><path class="cls-23_conference-1 targetColor" d="M122.35,471.78s-8.45.25-10.04,3.68-1.59,27.01-1.59,27.01h36.25s.83-24.85-.87-27.13-23.75-3.56-23.75-3.56Z" style="fill: rgb(68, 40, 107);"/><path class="cls-18_conference-1" d="M133.01,437.71c-1.73-.52-3.59-.35-5.19.48-.86.46-1.21,1.34-1.92,1.83-.6.4-1.61-.07-2.1.65-.58.84-.96,2.23-1.42,3.17-.58,1.22-1.11,2.46-1.59,3.73-.95,2.54-1.69,5.14-2.23,7.79-1.04,5.27-1.46,10.65-1.23,16.02.12,3.23.42,6.5,1.65,9.48,1.33,3.26,7.52,2.32,10.24,2.28,4.76-.08,9.51-.32,14.25-.73,1.04-10.46.83-21.01-.63-31.42-.32-2.31-.73-4.67-1.85-6.72-1.53-2.77-4.65-5.66-7.98-6.57Z"/></g></g></svg>